<?xml version="1.0" encoding="utf-8"?>
<!-- Generator: Adobe Illustrator 24.3.0, SVG Export Plug-In . SVG Version: 6.00 Build 0)  -->
<svg version="1.1" xmlns="http://www.w3.org/2000/svg" xmlns:xlink="http://www.w3.org/1999/xlink" x="0px" y="0px"
	 viewBox="0 0 512 512" style="enable-background:new 0 0 512 512;" xml:space="preserve">
<style type="text/css">
	.st0{fill:url(#SVGID_1_);}
	.st1{fill:url(#SVGID_2_);}
	.st2{fill:#49D9FF;}
	.st3{fill:#5FB5CC;}
	.st4{fill:#87C8D9;}
	.st5{fill:url(#SVGID_3_);}
	.st6{fill:url(#SVGID_4_);}
	.st7{fill:url(#SVGID_5_);}
	.st8{fill:url(#SVGID_6_);}
	.st9{fill:url(#SVGID_7_);}
	.st10{fill:url(#SVGID_8_);}
	.st11{fill:#B2B2B2;}
	.st12{fill:url(#SVGID_9_);}
	.st13{fill:url(#SVGID_10_);}
	.st14{fill:#478899;}
	.st15{fill:url(#SVGID_11_);}
	.st16{fill:url(#SVGID_12_);}
	.st17{fill:url(#SVGID_13_);}
	.st18{fill:url(#SVGID_14_);}
	.st19{fill:url(#SVGID_15_);}
	.st20{fill:url(#SVGID_16_);}
	.st21{fill:#595959;}
	.st22{opacity:0.82;fill:#FCEA10;}
</style>
<g id="Capa_2">
	<g>
		<linearGradient id="SVGID_1_" gradientUnits="userSpaceOnUse" x1="411.4029" y1="144.3437" x2="293.4307" y2="371.3508">
			<stop  offset="0" style="stop-color:#FFED00"/>
			<stop  offset="0.7478" style="stop-color:#EA5B0C"/>
		</linearGradient>
		<path class="st0" d="M468.32,200.86c0,14.66-3.66,28.47-10.11,40.56c-14.5,27.21-43.17,45.72-76.17,45.72
			c-0.75,0-1.51-0.01-2.26-0.03c-0.59-0.01-1.18-0.03-1.77-0.07c-16.37-0.74-31.56-6.05-44.31-14.7c-0.05-0.03-0.1-0.06-0.14-0.09
			c-22.82-15.53-37.81-41.7-37.81-71.38c0-11.81,2.38-23.07,6.67-33.32c13.03-31.11,43.77-52.97,79.62-52.97
			C429.69,114.57,468.32,153.2,468.32,200.86z"/>
		<linearGradient id="SVGID_2_" gradientUnits="userSpaceOnUse" x1="319.903" y1="313.2814" x2="511.23" y2="313.2814">
			<stop  offset="0.3319" style="stop-color:#5FB5CC"/>
			<stop  offset="1" style="stop-color:#87C8D9"/>
		</linearGradient>
		<path class="st1" d="M508.29,303.63c-7.71-26.88-26.02-49.24-50.08-62.22c-14.37-7.75-30.8-12.14-48.25-12.14
			c-15.45,0-30.1,3.46-43.23,9.64c-0.57,0.26-1.14,0.53-1.69,0.81c0.03,0.07,0.06,0.14,0.09,0.22c-12.81,8.07-23.6,19.19-31.41,32.4
			c-3.25,5.48-5.99,11.3-8.15,17.42c-0.1,0.29-0.21,0.59-0.3,0.88c-0.21,0.62-0.41,1.24-0.61,1.86c-0.19,0.58-0.36,1.16-0.54,1.75
			c-0.01,0,0,0.01,0,0.01c-2.59,8.8-4.04,18.11-4.19,27.67c0,0.41-0.01,0.83-0.01,1.24c0.05,29.72,13.05,56.31,33.48,74.13h147.06
			c5.96,0,10.78-4.87,10.78-10.86v-69.01C510.56,312.71,509.57,308.12,508.29,303.63z M366.71,243.7c0.03,0.05,0.05,0.11,0.07,0.17
			v0.01c0.12,0.27,0.24,0.54,0.35,0.8c-0.01,0-0.01,0.01-0.02,0.01c-0.27,0.14-0.56,0.27-0.84,0.41c-0.13-0.3-0.29-0.6-0.42-0.9
			C366.14,244.03,366.42,243.86,366.71,243.7z"/>
		<path class="st2" d="M9.32,314.53c-0.25,2.79-0.39,5.61-0.39,8.46v-6C9.05,316.17,9.19,315.35,9.32,314.53z"/>
		<path class="st2" d="M367.13,244.67c-0.01,0-0.01,0.01-0.02,0.01c-0.27,0.14-0.56,0.27-0.84,0.41c-0.13-0.3-0.29-0.6-0.42-0.9
			c0.29-0.17,0.57-0.33,0.86-0.5c0.03,0.05,0.05,0.11,0.07,0.17v0.01C366.91,244.14,367.02,244.41,367.13,244.67z"/>
		<path class="st3" d="M324.64,292.49c-2.93,9.32-4.57,19.22-4.73,29.43C320.02,311.65,321.67,301.75,324.64,292.49z"/>
		<path class="st3" d="M367.13,244.67c-0.01,0-0.01,0.01-0.02,0.01c-0.27,0.14-0.56,0.27-0.84,0.41c-0.13-0.3-0.29-0.6-0.42-0.9
			c0.29-0.17,0.57-0.33,0.86-0.5c0.03,0.05,0.05,0.11,0.07,0.17v0.01C366.91,244.14,367.02,244.41,367.13,244.67z"/>
		<path class="st4" d="M367.13,244.67c-0.01,0-0.01,0.01-0.02,0.01c-0.1-0.27-0.22-0.54-0.33-0.81
			C366.91,244.14,367.02,244.41,367.13,244.67z"/>
		<linearGradient id="SVGID_3_" gradientUnits="userSpaceOnUse" x1="0.77" y1="315.5385" x2="81.6973" y2="315.5385">
			<stop  offset="0" style="stop-color:#87C8D9"/>
			<stop  offset="0.6655" style="stop-color:#5FB5CC"/>
		</linearGradient>
		<path class="st5" d="M81.7,397.29H11.29c-5.81,0-10.52-4.71-10.52-10.52V325.2c0-2.94,0.14-5.86,0.4-8.74
			c5.6-33.72,26.8-62.16,55.95-77.64c6.06-2.67,7.92-3.68,14.57-5.03c-12.58,23.06-15.21,48.47-15.21,76.59
			C56.48,342.35,65.73,372.16,81.7,397.29z"/>
		<path class="st4" d="M381.6,307.17c0,33.3-9.95,64.29-27.03,90.12h-1.18l-271.9,0.14c-0.03-0.05-0.06-0.09-0.09-0.14
			c-17.1-25.84-27.03-56.82-27.03-90.12c0-26.38,6.25-51.31,17.33-73.38h0.01c26.89-53.52,82.29-90.25,146.28-90.25
			c66.01,0,122.88,39.08,148.75,95.37C376.28,259.69,381.6,282.81,381.6,307.17z"/>
	</g>
	<g>
		<linearGradient id="SVGID_4_" gradientUnits="userSpaceOnUse" x1="792.871" y1="252.5002" x2="789.1732" y2="259.6156">
			<stop  offset="0" style="stop-color:#FFED00"/>
			<stop  offset="0.7478" style="stop-color:#EA5B0C"/>
		</linearGradient>
		<path class="st6" d="M794.65,254.27c0,0.46-0.11,0.89-0.32,1.27c-0.45,0.85-1.35,1.43-2.39,1.43c-0.02,0-0.05,0-0.07,0
			c-0.02,0-0.04,0-0.06,0c-0.51-0.02-0.99-0.19-1.39-0.46c0,0,0,0,0,0c-0.72-0.49-1.19-1.31-1.19-2.24c0-0.37,0.07-0.72,0.21-1.04
			c0.41-0.98,1.37-1.66,2.5-1.66C793.44,251.57,794.65,252.78,794.65,254.27z"/>
		<linearGradient id="SVGID_5_" gradientUnits="userSpaceOnUse" x1="790.003" y1="257.7954" x2="796" y2="257.7954">
			<stop  offset="0.3319" style="stop-color:#5FB5CC"/>
			<stop  offset="1" style="stop-color:#87C8D9"/>
		</linearGradient>
		<path class="st7" d="M795.91,257.49c-0.24-0.84-0.82-1.54-1.57-1.95c-0.45-0.24-0.97-0.38-1.51-0.38c-0.48,0-0.94,0.11-1.36,0.3
			c-0.02,0.01-0.04,0.02-0.05,0.03c0,0,0,0,0,0.01c-0.4,0.25-0.74,0.6-0.98,1.02c-0.1,0.17-0.19,0.35-0.26,0.55
			c0,0.01-0.01,0.02-0.01,0.03c-0.01,0.02-0.01,0.04-0.02,0.06c-0.01,0.02-0.01,0.04-0.02,0.05c0,0,0,0,0,0
			c-0.08,0.28-0.13,0.57-0.13,0.87c0,0.01,0,0.03,0,0.04c0,0.93,0.41,1.77,1.05,2.32h4.61c0.19,0,0.34-0.15,0.34-0.34v-2.16
			C795.98,257.78,795.95,257.63,795.91,257.49z M791.47,255.61C791.47,255.62,791.47,255.62,791.47,255.61L791.47,255.61
			c0.01,0.01,0.01,0.02,0.01,0.03c0,0,0,0,0,0c-0.01,0-0.02,0.01-0.03,0.01c0-0.01-0.01-0.02-0.01-0.03
			C791.45,255.62,791.46,255.62,791.47,255.61z"/>
		<path class="st2" d="M780.27,257.83c-0.01,0.09-0.01,0.18-0.01,0.27v-0.19C780.26,257.89,780.26,257.86,780.27,257.83z"/>
		<path class="st2" d="M791.48,255.64C791.48,255.64,791.48,255.65,791.48,255.64c-0.01,0-0.02,0.01-0.03,0.01
			c0-0.01-0.01-0.02-0.01-0.03c0.01-0.01,0.02-0.01,0.03-0.02c0,0,0,0,0,0.01v0C791.48,255.63,791.48,255.64,791.48,255.64z"/>
		<path class="st3" d="M790.15,257.14c-0.09,0.29-0.14,0.6-0.15,0.92C790.01,257.74,790.06,257.43,790.15,257.14z"/>
		<path class="st3" d="M791.48,255.64C791.48,255.64,791.48,255.65,791.48,255.64c-0.01,0-0.02,0.01-0.03,0.01
			c0-0.01-0.01-0.02-0.01-0.03c0.01-0.01,0.02-0.01,0.03-0.02c0,0,0,0,0,0.01v0C791.48,255.63,791.48,255.64,791.48,255.64z"/>
		<path class="st4" d="M791.48,255.64C791.48,255.64,791.48,255.65,791.48,255.64c0-0.01-0.01-0.02-0.01-0.02
			C791.48,255.63,791.48,255.64,791.48,255.64z"/>
		<linearGradient id="SVGID_6_" gradientUnits="userSpaceOnUse" x1="780" y1="257.8662" x2="782.5366" y2="257.8662">
			<stop  offset="0" style="stop-color:#87C8D9"/>
			<stop  offset="0.6655" style="stop-color:#5FB5CC"/>
		</linearGradient>
		<path class="st8" d="M782.54,260.43h-2.21c-0.18,0-0.33-0.15-0.33-0.33v-1.93c0-0.09,0-0.18,0.01-0.27
			c0.18-1.06,0.84-1.95,1.75-2.43c0.19-0.08,0.25-0.12,0.46-0.16c-0.39,0.72-0.48,1.52-0.48,2.4
			C781.75,258.71,782.04,259.64,782.54,260.43z"/>
		<path class="st4" d="M791.94,257.6c0,1.04-0.31,2.01-0.85,2.82h-0.04l-8.52,0c0,0,0,0,0,0c-0.54-0.81-0.85-1.78-0.85-2.82
			c0-0.83,0.2-1.61,0.54-2.3h0c0.84-1.68,2.58-2.83,4.58-2.83c2.07,0,3.85,1.22,4.66,2.99C791.77,256.12,791.94,256.84,791.94,257.6
			z"/>
	</g>
	<path class="st2" d="M825.32,220.66c-0.25,2.79-0.39,5.61-0.39,8.46v-6C825.05,222.3,825.19,221.48,825.32,220.66z"/>
	<path class="st2" d="M1183.13,150.8c-0.01,0-0.01,0.01-0.02,0.01c-0.27,0.14-0.56,0.27-0.84,0.41c-0.13-0.3-0.29-0.6-0.42-0.9
		c0.29-0.17,0.57-0.33,0.86-0.5c0.03,0.05,0.05,0.11,0.07,0.17V150C1182.91,150.27,1183.02,150.54,1183.13,150.8z"/>
	<path class="st3" d="M1140.64,198.62c-2.93,9.32-4.57,19.22-4.73,29.43C1136.02,217.78,1137.67,207.89,1140.64,198.62z"/>
	<path class="st3" d="M1183.13,150.8c-0.01,0-0.01,0.01-0.02,0.01c-0.27,0.14-0.56,0.27-0.84,0.41c-0.13-0.3-0.29-0.6-0.42-0.9
		c0.29-0.17,0.57-0.33,0.86-0.5c0.03,0.05,0.05,0.11,0.07,0.17V150C1182.91,150.27,1183.02,150.54,1183.13,150.8z"/>
	<path class="st4" d="M1183.13,150.8c-0.01,0-0.01,0.01-0.02,0.01c-0.1-0.27-0.22-0.54-0.33-0.81
		C1182.91,150.27,1183.02,150.54,1183.13,150.8z"/>
	<g>
		<linearGradient id="SVGID_7_" gradientUnits="userSpaceOnUse" x1="1135.9031" y1="219.414" x2="1327.23" y2="219.414">
			<stop  offset="0.3138" style="stop-color:#478899"/>
			<stop  offset="1" style="stop-color:#5FB5CC"/>
		</linearGradient>
		<path class="st9" d="M1324.29,209.77c-7.71-26.88-26.02-49.24-50.08-62.22c-14.37-7.75-30.8-12.14-48.25-12.14
			c-15.45,0-30.1,3.46-43.23,9.64c-0.57,0.26-1.14,0.53-1.69,0.81c0.03,0.07,0.06,0.14,0.09,0.22c-12.81,8.07-23.6,19.19-31.41,32.4
			c-3.25,5.48-5.99,11.3-8.15,17.42c-0.1,0.29-0.21,0.59-0.3,0.88c-0.21,0.62-0.41,1.24-0.61,1.86c-0.19,0.58-0.36,1.16-0.54,1.75
			c-0.01,0,0,0.01,0,0.01c-2.59,8.8-4.04,18.11-4.19,27.67c0,0.41-0.01,0.83-0.01,1.24c0.05,29.72,13.05,56.31,33.48,74.13h147.06
			c5.96,0,10.78-4.87,10.78-10.86v-69.01C1326.56,218.85,1325.57,214.25,1324.29,209.77z M1182.71,149.83
			c0.03,0.05,0.05,0.11,0.07,0.17V150c0.12,0.27,0.24,0.54,0.35,0.8c-0.01,0-0.01,0.01-0.02,0.01c-0.27,0.14-0.56,0.27-0.84,0.41
			c-0.13-0.3-0.29-0.6-0.42-0.9C1182.14,150.16,1182.42,149.99,1182.71,149.83z"/>
		<linearGradient id="SVGID_8_" gradientUnits="userSpaceOnUse" x1="816.77" y1="221.6711" x2="897.6973" y2="221.6711">
			<stop  offset="0" style="stop-color:#5FB5CC"/>
			<stop  offset="0.6807" style="stop-color:#478899"/>
		</linearGradient>
		<path class="st10" d="M897.7,303.42h-70.41c-5.81,0-10.52-4.71-10.52-10.52v-61.57c0-2.94,0.14-5.86,0.4-8.74
			c5.6-33.72,26.8-62.16,55.95-77.64c6.06-2.67,7.92-3.68,14.57-5.03c-12.58,23.06-15.21,48.47-15.21,76.59
			C872.48,248.48,881.73,278.3,897.7,303.42z"/>
		<path class="st3" d="M1197.6,213.3c0,33.3-9.95,64.29-27.03,90.12h-1.18l-271.9,0.14c-0.03-0.05-0.06-0.09-0.09-0.14
			c-17.1-25.84-27.03-56.82-27.03-90.12c0-26.38,6.25-51.31,17.33-73.38h0.01c26.89-53.52,82.29-90.25,146.28-90.25
			c66.01,0,122.88,39.08,148.75,95.37C1192.28,165.82,1197.6,188.94,1197.6,213.3z"/>
	</g>
	<path class="st11" d="M954.2,370.89c0,11.05-9.62,19.85-20.95,18.49c-8.61-1.04-15.47-8.13-16.24-16.77
		c-0.27-3.05,0.18-5.95,1.23-8.57l0.39-0.92l15.37-36.19c0.58-1.37,2.52-1.37,3.1,0l14.61,34.68l1.78,4.22v0.01
		C953.96,367.45,954.2,369.14,954.2,370.89z"/>
	<path class="st11" d="M1227.06,370.89c0,11.05-9.62,19.85-20.95,18.49c-8.61-1.04-15.47-8.13-16.24-16.77
		c-0.27-3.05,0.18-5.95,1.23-8.57l0.39-0.92l15.37-36.19c0.58-1.37,2.52-1.37,3.1,0l14.61,34.68l1.78,4.22v0.01
		C1226.82,367.45,1227.06,369.14,1227.06,370.89z"/>
	<path class="st11" d="M1160.18,443.69c0,11.05-9.62,19.85-20.95,18.49c-8.61-1.04-15.47-8.13-16.24-16.77
		c-0.27-3.05,0.18-5.95,1.23-8.57l0.39-0.92l15.37-36.19c0.58-1.37,2.52-1.37,3.1,0l14.61,34.68l1.78,4.22v0.01
		C1159.94,440.25,1160.18,441.94,1160.18,443.69z"/>
	<path class="st11" d="M1023.05,443.69c0,11.05-9.62,19.85-20.95,18.49c-8.61-1.04-15.47-8.13-16.24-16.77
		c-0.27-3.05,0.18-5.95,1.23-8.57l0.39-0.92l15.37-36.19c0.58-1.37,2.52-1.37,3.1,0l14.61,34.68l1.78,4.22v0.01
		C1022.81,440.25,1023.05,441.94,1023.05,443.69z"/>
	<path class="st11" d="M1090.63,370.89c0,11.05-9.62,19.85-20.95,18.49c-8.61-1.04-15.47-8.13-16.24-16.77
		c-0.27-3.05,0.18-5.95,1.23-8.57l0.39-0.92l15.37-36.19c0.58-1.37,2.52-1.37,3.1,0l14.61,34.68l1.78,4.22v0.01
		C1090.39,367.45,1090.63,369.14,1090.63,370.89z"/>
	<linearGradient id="SVGID_9_" gradientUnits="userSpaceOnUse" x1="1667.9031" y1="219.414" x2="1859.23" y2="219.414">
		<stop  offset="0.3138" style="stop-color:#305B66"/>
		<stop  offset="1" style="stop-color:#478899"/>
	</linearGradient>
	<path class="st12" d="M1856.29,209.77c-7.71-26.88-26.02-49.24-50.08-62.22c-14.37-7.75-30.8-12.14-48.25-12.14
		c-15.45,0-30.1,3.46-43.23,9.64c-0.57,0.26-1.14,0.53-1.69,0.81c0.03,0.07,0.06,0.14,0.09,0.22c-12.81,8.07-23.6,19.19-31.41,32.4
		c-3.25,5.48-5.99,11.3-8.15,17.42c-0.1,0.29-0.21,0.59-0.3,0.88c-0.21,0.62-0.41,1.24-0.61,1.86c-0.19,0.58-0.36,1.16-0.54,1.75
		c-0.01,0,0,0.01,0,0.01c-2.59,8.8-4.04,18.11-4.19,27.67c0,0.41-0.01,0.83-0.01,1.24c0.05,29.72,13.05,56.31,33.48,74.13h147.06
		c5.96,0,10.78-4.87,10.78-10.86v-69.01C1858.56,218.85,1857.57,214.25,1856.29,209.77z M1714.71,149.83
		c0.03,0.05,0.05,0.11,0.07,0.17V150c0.12,0.27,0.24,0.54,0.35,0.8c-0.01,0-0.01,0.01-0.02,0.01c-0.27,0.14-0.56,0.27-0.84,0.41
		c-0.13-0.3-0.29-0.6-0.42-0.9C1714.14,150.16,1714.42,149.99,1714.71,149.83z"/>
	<path class="st2" d="M1357.32,220.66c-0.25,2.79-0.39,5.61-0.39,8.46v-6C1357.05,222.3,1357.19,221.48,1357.32,220.66z"/>
	<path class="st2" d="M1715.13,150.8c-0.01,0-0.01,0.01-0.02,0.01c-0.27,0.14-0.56,0.27-0.84,0.41c-0.13-0.3-0.29-0.6-0.42-0.9
		c0.29-0.17,0.57-0.33,0.86-0.5c0.03,0.05,0.05,0.11,0.07,0.17V150C1714.91,150.27,1715.02,150.54,1715.13,150.8z"/>
	<path class="st3" d="M1672.64,198.62c-2.93,9.32-4.57,19.22-4.73,29.43C1668.02,217.78,1669.67,207.89,1672.64,198.62z"/>
	<path class="st3" d="M1715.13,150.8c-0.01,0-0.01,0.01-0.02,0.01c-0.27,0.14-0.56,0.27-0.84,0.41c-0.13-0.3-0.29-0.6-0.42-0.9
		c0.29-0.17,0.57-0.33,0.86-0.5c0.03,0.05,0.05,0.11,0.07,0.17V150C1714.91,150.27,1715.02,150.54,1715.13,150.8z"/>
	<path class="st4" d="M1715.13,150.8c-0.01,0-0.01,0.01-0.02,0.01c-0.1-0.27-0.22-0.54-0.33-0.81
		C1714.91,150.27,1715.02,150.54,1715.13,150.8z"/>
	<linearGradient id="SVGID_10_" gradientUnits="userSpaceOnUse" x1="1348.77" y1="221.6711" x2="1429.6973" y2="221.6711">
		<stop  offset="0" style="stop-color:#478899"/>
		<stop  offset="0.6807" style="stop-color:#305B66"/>
	</linearGradient>
	<path class="st13" d="M1429.7,303.42h-70.41c-5.81,0-10.52-4.71-10.52-10.52v-61.57c0-2.94,0.14-5.86,0.4-8.74
		c5.6-33.72,26.8-62.16,55.95-77.64c6.06-2.67,7.92-3.68,14.57-5.03c-12.58,23.06-15.21,48.47-15.21,76.59
		C1404.48,248.48,1413.73,278.3,1429.7,303.42z"/>
	<path class="st14" d="M1729.6,213.3c0,33.3-9.95,64.29-27.03,90.12h-1.18l-271.9,0.14c-0.03-0.05-0.06-0.09-0.09-0.14
		c-17.1-25.84-27.03-56.82-27.03-90.12c0-26.38,6.25-51.31,17.33-73.38h0.01c26.89-53.52,82.29-90.25,146.28-90.25
		c66.01,0,122.88,39.08,148.75,95.37C1724.28,165.82,1729.6,188.94,1729.6,213.3z"/>
	<line class="st11" x1="1429.39" y1="303.42" x2="1429.39" y2="462.32"/>
	<line class="st11" x1="1702.56" y1="303.42" x2="1702.56" y2="462.32"/>
	<linearGradient id="SVGID_11_" gradientUnits="userSpaceOnUse" x1="2291.4028" y1="144.3437" x2="2173.4307" y2="371.3508">
		<stop  offset="0" style="stop-color:#FFED00"/>
		<stop  offset="0.3619" style="stop-color:#EA5B0C"/>
	</linearGradient>
	<path class="st15" d="M2348.32,200.86c0,14.66-3.66,28.47-10.11,40.56c-14.5,27.21-43.17,45.72-76.17,45.72
		c-0.75,0-1.51-0.01-2.26-0.03c-0.59-0.01-1.18-0.03-1.77-0.07c-16.37-0.74-31.56-6.05-44.31-14.7c-0.05-0.03-0.1-0.06-0.14-0.09
		c-22.82-15.53-37.81-41.7-37.81-71.38c0-11.81,2.38-23.07,6.67-33.32c13.03-31.11,43.77-52.97,79.62-52.97
		C2309.69,114.57,2348.32,153.2,2348.32,200.86z"/>
	<path class="st2" d="M1889.32,314.53c-0.25,2.79-0.39,5.61-0.39,8.46v-6C1889.05,316.17,1889.19,315.35,1889.32,314.53z"/>
	<path class="st2" d="M2247.13,244.67c-0.01,0-0.01,0.01-0.02,0.01c-0.27,0.14-0.56,0.27-0.84,0.41c-0.13-0.3-0.29-0.6-0.42-0.9
		c0.29-0.17,0.57-0.33,0.86-0.5c0.03,0.05,0.05,0.11,0.07,0.17v0.01C2246.91,244.14,2247.02,244.41,2247.13,244.67z"/>
	<path class="st3" d="M2204.64,292.49c-2.93,9.32-4.57,19.22-4.73,29.43C2200.02,311.65,2201.67,301.75,2204.64,292.49z"/>
	<path class="st3" d="M2247.13,244.67c-0.01,0-0.01,0.01-0.02,0.01c-0.27,0.14-0.56,0.27-0.84,0.41c-0.13-0.3-0.29-0.6-0.42-0.9
		c0.29-0.17,0.57-0.33,0.86-0.5c0.03,0.05,0.05,0.11,0.07,0.17v0.01C2246.91,244.14,2247.02,244.41,2247.13,244.67z"/>
	<path class="st4" d="M2247.13,244.67c-0.01,0-0.01,0.01-0.02,0.01c-0.1-0.27-0.22-0.54-0.33-0.81
		C2246.91,244.14,2247.02,244.41,2247.13,244.67z"/>
	<g>
		<linearGradient id="SVGID_12_" gradientUnits="userSpaceOnUse" x1="2199.9031" y1="313.2814" x2="2391.23" y2="313.2814">
			<stop  offset="0.3138" style="stop-color:#478899"/>
			<stop  offset="1" style="stop-color:#5FB5CC"/>
		</linearGradient>
		<path class="st16" d="M2388.29,303.63c-7.71-26.88-26.02-49.24-50.08-62.22c-14.37-7.75-30.8-12.14-48.25-12.14
			c-15.45,0-30.1,3.46-43.23,9.64c-0.57,0.26-1.14,0.53-1.69,0.81c0.03,0.07,0.06,0.14,0.09,0.22c-12.81,8.07-23.6,19.19-31.41,32.4
			c-3.25,5.48-5.99,11.3-8.15,17.42c-0.1,0.29-0.21,0.59-0.3,0.88c-0.21,0.62-0.41,1.24-0.61,1.86c-0.19,0.58-0.36,1.16-0.54,1.75
			c-0.01,0,0,0.01,0,0.01c-2.59,8.8-4.04,18.11-4.19,27.67c0,0.41-0.01,0.83-0.01,1.24c0.05,29.72,13.05,56.31,33.48,74.13h147.06
			c5.96,0,10.78-4.87,10.78-10.86v-69.01C2390.56,312.71,2389.57,308.12,2388.29,303.63z M2246.71,243.7
			c0.03,0.05,0.05,0.11,0.07,0.17v0.01c0.12,0.27,0.24,0.54,0.35,0.8c-0.01,0-0.01,0.01-0.02,0.01c-0.27,0.14-0.56,0.27-0.84,0.41
			c-0.13-0.3-0.29-0.6-0.42-0.9C2246.14,244.03,2246.42,243.86,2246.71,243.7z"/>
		<linearGradient id="SVGID_13_" gradientUnits="userSpaceOnUse" x1="1880.77" y1="315.5385" x2="1961.6973" y2="315.5385">
			<stop  offset="0" style="stop-color:#5FB5CC"/>
			<stop  offset="0.6807" style="stop-color:#478899"/>
		</linearGradient>
		<path class="st17" d="M1961.7,397.29h-70.41c-5.81,0-10.52-4.71-10.52-10.52V325.2c0-2.94,0.14-5.86,0.4-8.74
			c5.6-33.72,26.8-62.16,55.95-77.64c6.06-2.67,7.92-3.68,14.57-5.03c-12.58,23.06-15.21,48.47-15.21,76.59
			C1936.48,342.35,1945.73,372.16,1961.7,397.29z"/>
		<path class="st3" d="M2261.6,307.17c0,33.3-9.95,64.29-27.03,90.12h-1.18l-271.9,0.14c-0.03-0.05-0.06-0.09-0.09-0.14
			c-17.1-25.84-27.03-56.82-27.03-90.12c0-26.38,6.25-51.31,17.33-73.38h0.01c26.89-53.52,82.29-90.25,146.28-90.25
			c66.01,0,122.88,39.08,148.75,95.37C2256.28,259.69,2261.6,282.81,2261.6,307.17z"/>
	</g>
	<linearGradient id="SVGID_14_" gradientUnits="userSpaceOnUse" x1="2754.718" y1="243.8264" x2="2866.4653" y2="121.6968">
		<stop  offset="0" style="stop-color:#706F6F"/>
		<stop  offset="1" style="stop-color:#F6F6F6"/>
	</linearGradient>
	<path class="st18" d="M2880.32,200.86c0,14.66-3.66,28.47-10.11,40.56c-14.5,27.21-43.17,45.72-76.17,45.72
		c-0.75,0-1.51-0.01-2.26-0.03c-0.59-0.01-1.18-0.03-1.77-0.07c-16.37-0.74-31.56-6.05-44.31-14.7c-0.05-0.03-0.1-0.06-0.14-0.09
		c-22.82-15.53-37.81-41.7-37.81-71.38c0-11.81,2.38-23.07,6.67-33.32c13.03-31.11,43.77-52.97,79.62-52.97
		C2841.69,114.57,2880.32,153.2,2880.32,200.86z"/>
	<g>
		<linearGradient id="SVGID_15_" gradientUnits="userSpaceOnUse" x1="2731.9031" y1="313.2814" x2="2923.23" y2="313.2814">
			<stop  offset="0.3138" style="stop-color:#305B66"/>
			<stop  offset="1" style="stop-color:#478899"/>
		</linearGradient>
		<path class="st19" d="M2920.29,303.63c-7.71-26.88-26.02-49.24-50.08-62.22c-14.37-7.75-30.8-12.14-48.25-12.14
			c-15.45,0-30.1,3.46-43.23,9.64c-0.57,0.26-1.14,0.53-1.69,0.81c0.03,0.07,0.06,0.14,0.09,0.22c-12.81,8.07-23.6,19.19-31.41,32.4
			c-3.25,5.48-5.99,11.3-8.15,17.42c-0.1,0.29-0.21,0.59-0.3,0.88c-0.21,0.62-0.41,1.24-0.61,1.86c-0.19,0.58-0.36,1.16-0.54,1.75
			c-0.01,0,0,0.01,0,0.01c-2.59,8.8-4.04,18.11-4.19,27.67c0,0.41-0.01,0.83-0.01,1.24c0.05,29.72,13.05,56.31,33.48,74.13h147.06
			c5.96,0,10.78-4.87,10.78-10.86v-69.01C2922.56,312.71,2921.57,308.12,2920.29,303.63z M2778.71,243.7
			c0.03,0.05,0.05,0.11,0.07,0.17v0.01c0.12,0.27,0.24,0.54,0.35,0.8c-0.01,0-0.01,0.01-0.02,0.01c-0.27,0.14-0.56,0.27-0.84,0.41
			c-0.13-0.3-0.29-0.6-0.42-0.9C2778.14,244.03,2778.42,243.86,2778.71,243.7z"/>
		<path class="st2" d="M2421.32,314.53c-0.25,2.79-0.39,5.61-0.39,8.46v-6C2421.05,316.17,2421.19,315.35,2421.32,314.53z"/>
		<path class="st2" d="M2779.13,244.67c-0.01,0-0.01,0.01-0.02,0.01c-0.27,0.14-0.56,0.27-0.84,0.41c-0.13-0.3-0.29-0.6-0.42-0.9
			c0.29-0.17,0.57-0.33,0.86-0.5c0.03,0.05,0.05,0.11,0.07,0.17v0.01C2778.91,244.14,2779.02,244.41,2779.13,244.67z"/>
		<path class="st3" d="M2736.64,292.49c-2.93,9.32-4.57,19.22-4.73,29.43C2732.02,311.65,2733.67,301.75,2736.64,292.49z"/>
		<path class="st3" d="M2779.13,244.67c-0.01,0-0.01,0.01-0.02,0.01c-0.27,0.14-0.56,0.27-0.84,0.41c-0.13-0.3-0.29-0.6-0.42-0.9
			c0.29-0.17,0.57-0.33,0.86-0.5c0.03,0.05,0.05,0.11,0.07,0.17v0.01C2778.91,244.14,2779.02,244.41,2779.13,244.67z"/>
		<path class="st4" d="M2779.13,244.67c-0.01,0-0.01,0.01-0.02,0.01c-0.1-0.27-0.22-0.54-0.33-0.81
			C2778.91,244.14,2779.02,244.41,2779.13,244.67z"/>
		<linearGradient id="SVGID_16_" gradientUnits="userSpaceOnUse" x1="2412.77" y1="315.5385" x2="2493.6973" y2="315.5385">
			<stop  offset="0" style="stop-color:#478899"/>
			<stop  offset="0.6807" style="stop-color:#305B66"/>
		</linearGradient>
		<path class="st20" d="M2493.7,397.29h-70.41c-5.81,0-10.52-4.71-10.52-10.52V325.2c0-2.94,0.14-5.86,0.4-8.74
			c5.6-33.72,26.8-62.16,55.95-77.64c6.06-2.67,7.92-3.68,14.57-5.03c-12.58,23.06-15.21,48.47-15.21,76.59
			C2468.48,342.35,2477.73,372.16,2493.7,397.29z"/>
		<path class="st14" d="M2793.6,307.17c0,33.3-9.95,64.29-27.03,90.12h-1.18l-271.9,0.14c-0.03-0.05-0.06-0.09-0.09-0.14
			c-17.1-25.84-27.03-56.82-27.03-90.12c0-26.38,6.25-51.31,17.33-73.38h0.01c26.89-53.52,82.29-90.25,146.28-90.25
			c66.01,0,122.88,39.08,148.75,95.37C2788.28,259.69,2793.6,282.81,2793.6,307.17z"/>
	</g>
</g>
<g id="Capa_3">
	<path class="st21" d="M1759.06,370.89c0,11.05-9.62,19.85-20.95,18.49c-8.61-1.04-15.47-8.13-16.24-16.77
		c-0.27-3.05,0.18-5.95,1.23-8.57l0.39-0.92l15.37-36.19c0.58-1.37,2.52-1.37,3.1,0l14.61,34.68l1.78,4.22v0.01
		C1758.82,367.45,1759.06,369.14,1759.06,370.89z"/>
	<path class="st21" d="M1692.18,443.69c0,11.05-9.62,19.85-20.95,18.49c-8.61-1.04-15.47-8.13-16.24-16.77
		c-0.27-3.05,0.18-5.95,1.23-8.57l0.39-0.92l15.37-36.19c0.58-1.37,2.52-1.37,3.1,0l14.61,34.68l1.78,4.22v0.01
		C1691.94,440.25,1692.18,441.94,1692.18,443.69z"/>
	<path class="st21" d="M1555.05,443.69c0,11.05-9.62,19.85-20.95,18.49c-8.61-1.04-15.47-8.13-16.24-16.77
		c-0.27-3.05,0.18-5.95,1.23-8.57l0.39-0.92l15.37-36.19c0.58-1.37,2.52-1.37,3.1,0l14.61,34.68l1.78,4.22v0.01
		C1554.81,440.25,1555.05,441.94,1555.05,443.69z"/>
	<path class="st21" d="M1622.63,370.89c0,11.05-9.62,19.85-20.95,18.49c-8.61-1.04-15.47-8.13-16.24-16.77
		c-0.27-3.05,0.18-5.95,1.23-8.57l0.39-0.92l15.37-36.19c0.58-1.37,2.52-1.37,3.1,0l14.61,34.68l1.78,4.22v0.01
		C1622.39,367.45,1622.63,369.14,1622.63,370.89z"/>
	<path class="st21" d="M1486.2,370.89c0,11.05-9.62,19.85-20.95,18.49c-8.61-1.04-15.47-8.13-16.24-16.77
		c-0.27-3.05,0.18-5.95,1.23-8.57l0.39-0.92l15.37-36.19c0.58-1.37,2.52-1.37,3.1,0l14.61,34.68l1.78,4.22v0.01
		C1485.96,367.45,1486.2,369.14,1486.2,370.89z"/>
</g>
<g id="Capa_4">
	<polyline class="st22" points="1429.39,514.26 1457.31,454.33 1485.24,394.4 1429.39,394.4 	"/>
	<polyline class="st22" points="1429.7,303.56 1401.62,363.49 1373.54,423.42 1429.7,423.42 	"/>
	<polyline class="st22" points="1702.56,513 1730.49,453.07 1758.41,393.15 1702.56,393.15 	"/>
	<polyline class="st22" points="1702.87,303.42 1674.79,362.79 1646.71,422.16 1702.87,422.16 	"/>
</g>
</svg>
