<?xml version="1.0" encoding="utf-8"?>
<!-- Generator: Adobe Illustrator 24.3.0, SVG Export Plug-In . SVG Version: 6.00 Build 0)  -->
<svg version="1.1" xmlns="http://www.w3.org/2000/svg" xmlns:xlink="http://www.w3.org/1999/xlink" x="0px" y="0px"
	 viewBox="0 0 16 16" style="enable-background:new 0 0 16 16;" xml:space="preserve">
<style type="text/css">
	.st0{fill:url(#SVGID_1_);}
	.st1{fill:url(#SVGID_2_);}
	.st2{fill:#49D9FF;}
	.st3{fill:#5FB5CC;}
	.st4{fill:#87C8D9;}
	.st5{fill:url(#SVGID_3_);}
	.st6{fill:url(#SVGID_4_);}
	.st7{fill:url(#SVGID_5_);}
	.st8{fill:url(#SVGID_6_);}
	.st9{fill:url(#SVGID_7_);}
	.st10{fill:url(#SVGID_8_);}
	.st11{fill:#B2B2B2;}
	.st12{fill:url(#SVGID_9_);}
	.st13{fill:url(#SVGID_10_);}
	.st14{fill:#478899;}
	.st15{fill:url(#SVGID_11_);}
	.st16{fill:url(#SVGID_12_);}
	.st17{fill:url(#SVGID_13_);}
	.st18{fill:url(#SVGID_14_);}
	.st19{fill:url(#SVGID_15_);}
	.st20{fill:url(#SVGID_16_);}
	.st21{fill:#595959;}
	.st22{opacity:0.82;fill:#FCEA10;}
</style>
<g id="Capa_2">
	<g>
		<linearGradient id="SVGID_1_" gradientUnits="userSpaceOnUse" x1="-368.5971" y1="-103.6563" x2="-486.5693" y2="123.3508">
			<stop  offset="0" style="stop-color:#FFED00"/>
			<stop  offset="0.7478" style="stop-color:#EA5B0C"/>
		</linearGradient>
		<path class="st0" d="M-311.68-47.14c0,14.66-3.66,28.47-10.11,40.56c-14.5,27.21-43.17,45.72-76.17,45.72
			c-0.75,0-1.51-0.01-2.26-0.03c-0.59-0.01-1.18-0.03-1.77-0.07c-16.37-0.74-31.56-6.05-44.31-14.7c-0.05-0.03-0.1-0.06-0.14-0.09
			c-22.82-15.53-37.81-41.7-37.81-71.38c0-11.81,2.38-23.07,6.67-33.32c13.03-31.11,43.77-52.97,79.62-52.97
			C-350.31-133.43-311.68-94.8-311.68-47.14z"/>
		<linearGradient id="SVGID_2_" gradientUnits="userSpaceOnUse" x1="-460.097" y1="65.2814" x2="-268.77" y2="65.2814">
			<stop  offset="0.3319" style="stop-color:#5FB5CC"/>
			<stop  offset="1" style="stop-color:#87C8D9"/>
		</linearGradient>
		<path class="st1" d="M-271.71,55.63c-7.71-26.88-26.02-49.24-50.08-62.22c-14.37-7.75-30.8-12.14-48.25-12.14
			c-15.45,0-30.1,3.46-43.23,9.64c-0.57,0.26-1.14,0.53-1.69,0.81c0.03,0.07,0.06,0.14,0.09,0.22c-12.81,8.07-23.6,19.19-31.41,32.4
			c-3.25,5.48-5.99,11.3-8.15,17.42c-0.1,0.29-0.21,0.59-0.3,0.88c-0.21,0.62-0.41,1.24-0.61,1.86c-0.19,0.58-0.36,1.16-0.54,1.75
			c-0.01,0,0,0.01,0,0.01c-2.59,8.8-4.04,18.11-4.19,27.67c0,0.41-0.01,0.83-0.01,1.24c0.05,29.72,13.05,56.31,33.48,74.13h147.06
			c5.96,0,10.78-4.87,10.78-10.86V69.42C-269.44,64.71-270.43,60.12-271.71,55.63z M-413.29-4.3c0.03,0.05,0.05,0.11,0.07,0.17v0.01
			c0.12,0.27,0.24,0.54,0.35,0.8c-0.01,0-0.01,0.01-0.02,0.01c-0.27,0.14-0.56,0.27-0.84,0.41c-0.13-0.3-0.29-0.6-0.42-0.9
			C-413.86-3.97-413.58-4.14-413.29-4.3z"/>
		<path class="st2" d="M-770.68,66.53c-0.25,2.79-0.39,5.61-0.39,8.46v-6C-770.95,68.17-770.81,67.35-770.68,66.53z"/>
		<path class="st2" d="M-412.87-3.33c-0.01,0-0.01,0.01-0.02,0.01c-0.27,0.14-0.56,0.27-0.84,0.41c-0.13-0.3-0.29-0.6-0.42-0.9
			c0.29-0.17,0.57-0.33,0.86-0.5c0.03,0.05,0.05,0.11,0.07,0.17v0.01C-413.09-3.86-412.98-3.59-412.87-3.33z"/>
		<path class="st3" d="M-455.36,44.49c-2.93,9.32-4.57,19.22-4.73,29.43C-459.98,63.65-458.33,53.75-455.36,44.49z"/>
		<path class="st3" d="M-412.87-3.33c-0.01,0-0.01,0.01-0.02,0.01c-0.27,0.14-0.56,0.27-0.84,0.41c-0.13-0.3-0.29-0.6-0.42-0.9
			c0.29-0.17,0.57-0.33,0.86-0.5c0.03,0.05,0.05,0.11,0.07,0.17v0.01C-413.09-3.86-412.98-3.59-412.87-3.33z"/>
		<path class="st4" d="M-412.87-3.33c-0.01,0-0.01,0.01-0.02,0.01c-0.1-0.27-0.22-0.54-0.33-0.81
			C-413.09-3.86-412.98-3.59-412.87-3.33z"/>
		<linearGradient id="SVGID_3_" gradientUnits="userSpaceOnUse" x1="-779.23" y1="67.5385" x2="-698.3027" y2="67.5385">
			<stop  offset="0" style="stop-color:#87C8D9"/>
			<stop  offset="0.6655" style="stop-color:#5FB5CC"/>
		</linearGradient>
		<path class="st5" d="M-698.3,149.29h-70.41c-5.81,0-10.52-4.71-10.52-10.52V77.2c0-2.94,0.14-5.86,0.4-8.74
			c5.6-33.72,26.8-62.16,55.95-77.64c6.06-2.67,7.92-3.68,14.57-5.03c-12.58,23.06-15.21,48.47-15.21,76.59
			C-723.52,94.35-714.27,124.16-698.3,149.29z"/>
		<path class="st4" d="M-398.4,59.17c0,33.3-9.95,64.29-27.03,90.12h-1.18l-271.9,0.14c-0.03-0.05-0.06-0.09-0.09-0.14
			c-17.1-25.84-27.03-56.82-27.03-90.12c0-26.38,6.25-51.31,17.33-73.38h0.01c26.89-53.52,82.29-90.25,146.28-90.25
			c66.01,0,122.88,39.08,148.75,95.37C-403.72,11.69-398.4,34.81-398.4,59.17z"/>
	</g>
	<g>
		<linearGradient id="SVGID_4_" gradientUnits="userSpaceOnUse" x1="12.871" y1="4.5002" x2="9.1732" y2="11.6156">
			<stop  offset="0" style="stop-color:#FFED00"/>
			<stop  offset="0.7478" style="stop-color:#EA5B0C"/>
		</linearGradient>
		<path class="st6" d="M14.65,6.27c0,0.46-0.11,0.89-0.32,1.27c-0.45,0.85-1.35,1.43-2.39,1.43c-0.02,0-0.05,0-0.07,0
			c-0.02,0-0.04,0-0.06,0c-0.51-0.02-0.99-0.19-1.39-0.46c0,0,0,0,0,0C9.72,8.02,9.25,7.2,9.25,6.27c0-0.37,0.07-0.72,0.21-1.04
			c0.41-0.98,1.37-1.66,2.5-1.66C13.44,3.57,14.65,4.78,14.65,6.27z"/>
		<linearGradient id="SVGID_5_" gradientUnits="userSpaceOnUse" x1="10.003" y1="9.7954" x2="16" y2="9.7954">
			<stop  offset="0.3319" style="stop-color:#5FB5CC"/>
			<stop  offset="1" style="stop-color:#87C8D9"/>
		</linearGradient>
		<path class="st7" d="M15.91,9.49c-0.24-0.84-0.82-1.54-1.57-1.95c-0.45-0.24-0.97-0.38-1.51-0.38c-0.48,0-0.94,0.11-1.36,0.3
			c-0.02,0.01-0.04,0.02-0.05,0.03c0,0,0,0,0,0.01c-0.4,0.25-0.74,0.6-0.98,1.02c-0.1,0.17-0.19,0.35-0.26,0.55
			c0,0.01-0.01,0.02-0.01,0.03c-0.01,0.02-0.01,0.04-0.02,0.06c-0.01,0.02-0.01,0.04-0.02,0.05c0,0,0,0,0,0
			c-0.08,0.28-0.13,0.57-0.13,0.87c0,0.01,0,0.03,0,0.04c0,0.93,0.41,1.77,1.05,2.32h4.61c0.19,0,0.34-0.15,0.34-0.34V9.93
			C15.98,9.78,15.95,9.63,15.91,9.49z M11.47,7.61C11.47,7.62,11.47,7.62,11.47,7.61L11.47,7.61c0.01,0.01,0.01,0.02,0.01,0.03
			c0,0,0,0,0,0c-0.01,0-0.02,0.01-0.03,0.01c0-0.01-0.01-0.02-0.01-0.03C11.45,7.62,11.46,7.62,11.47,7.61z"/>
		<path class="st2" d="M0.27,9.83c-0.01,0.09-0.01,0.18-0.01,0.27V9.91C0.26,9.89,0.26,9.86,0.27,9.83z"/>
		<path class="st2" d="M11.48,7.64C11.48,7.64,11.48,7.65,11.48,7.64c-0.01,0-0.02,0.01-0.03,0.01c0-0.01-0.01-0.02-0.01-0.03
			c0.01-0.01,0.02-0.01,0.03-0.02c0,0,0,0,0,0.01v0C11.48,7.63,11.48,7.64,11.48,7.64z"/>
		<path class="st3" d="M10.15,9.14c-0.09,0.29-0.14,0.6-0.15,0.92C10.01,9.74,10.06,9.43,10.15,9.14z"/>
		<path class="st3" d="M11.48,7.64C11.48,7.64,11.48,7.65,11.48,7.64c-0.01,0-0.02,0.01-0.03,0.01c0-0.01-0.01-0.02-0.01-0.03
			c0.01-0.01,0.02-0.01,0.03-0.02c0,0,0,0,0,0.01v0C11.48,7.63,11.48,7.64,11.48,7.64z"/>
		<path class="st4" d="M11.48,7.64C11.48,7.64,11.48,7.65,11.48,7.64c0-0.01-0.01-0.02-0.01-0.02C11.48,7.63,11.48,7.64,11.48,7.64z
			"/>
		<linearGradient id="SVGID_6_" gradientUnits="userSpaceOnUse" x1="0" y1="9.8662" x2="2.5366" y2="9.8662">
			<stop  offset="0" style="stop-color:#87C8D9"/>
			<stop  offset="0.6655" style="stop-color:#5FB5CC"/>
		</linearGradient>
		<path class="st8" d="M2.54,12.43H0.33C0.15,12.43,0,12.28,0,12.1v-1.93c0-0.09,0-0.18,0.01-0.27c0.18-1.06,0.84-1.95,1.75-2.43
			C1.96,7.38,2.01,7.35,2.22,7.3C1.83,8.03,1.75,8.82,1.75,9.7C1.75,10.71,2.04,11.64,2.54,12.43z"/>
		<path class="st4" d="M11.94,9.6c0,1.04-0.31,2.01-0.85,2.82h-0.04l-8.52,0c0,0,0,0,0,0c-0.54-0.81-0.85-1.78-0.85-2.82
			c0-0.83,0.2-1.61,0.54-2.3h0C3.07,5.63,4.8,4.48,6.81,4.48c2.07,0,3.85,1.22,4.66,2.99C11.77,8.12,11.94,8.84,11.94,9.6z"/>
	</g>
	<path class="st2" d="M45.32-27.34c-0.25,2.79-0.39,5.61-0.39,8.46v-6C45.05-25.7,45.19-26.52,45.32-27.34z"/>
	<path class="st2" d="M403.13-97.2c-0.01,0-0.01,0.01-0.02,0.01c-0.27,0.14-0.56,0.27-0.84,0.41c-0.13-0.3-0.29-0.6-0.42-0.9
		c0.29-0.17,0.57-0.33,0.86-0.5c0.03,0.05,0.05,0.11,0.07,0.17V-98C402.91-97.73,403.02-97.46,403.13-97.2z"/>
	<path class="st3" d="M360.64-49.38c-2.93,9.32-4.57,19.22-4.73,29.43C356.02-30.22,357.67-40.11,360.64-49.38z"/>
	<path class="st3" d="M403.13-97.2c-0.01,0-0.01,0.01-0.02,0.01c-0.27,0.14-0.56,0.27-0.84,0.41c-0.13-0.3-0.29-0.6-0.42-0.9
		c0.29-0.17,0.57-0.33,0.86-0.5c0.03,0.05,0.05,0.11,0.07,0.17V-98C402.91-97.73,403.02-97.46,403.13-97.2z"/>
	<path class="st4" d="M403.13-97.2c-0.01,0-0.01,0.01-0.02,0.01c-0.1-0.27-0.22-0.54-0.33-0.81
		C402.91-97.73,403.02-97.46,403.13-97.2z"/>
	<g>
		<linearGradient id="SVGID_7_" gradientUnits="userSpaceOnUse" x1="355.903" y1="-28.586" x2="547.23" y2="-28.586">
			<stop  offset="0.3138" style="stop-color:#478899"/>
			<stop  offset="1" style="stop-color:#5FB5CC"/>
		</linearGradient>
		<path class="st9" d="M544.29-38.23c-7.71-26.88-26.02-49.24-50.08-62.22c-14.37-7.75-30.8-12.14-48.25-12.14
			c-15.45,0-30.1,3.46-43.23,9.64c-0.57,0.26-1.14,0.53-1.69,0.81c0.03,0.07,0.06,0.14,0.09,0.22c-12.81,8.07-23.6,19.19-31.41,32.4
			c-3.25,5.48-5.99,11.3-8.15,17.42c-0.1,0.29-0.21,0.59-0.3,0.88c-0.21,0.62-0.41,1.24-0.61,1.86c-0.19,0.58-0.36,1.16-0.54,1.75
			c-0.01,0,0,0.01,0,0.01c-2.59,8.8-4.04,18.11-4.19,27.67c0,0.41-0.01,0.83-0.01,1.24c0.05,29.72,13.05,56.31,33.48,74.13h147.06
			c5.96,0,10.78-4.87,10.78-10.86v-69.01C546.56-29.15,545.57-33.75,544.29-38.23z M402.71-98.17c0.03,0.05,0.05,0.11,0.07,0.17V-98
			c0.12,0.27,0.24,0.54,0.35,0.8c-0.01,0-0.01,0.01-0.02,0.01c-0.27,0.14-0.56,0.27-0.84,0.41c-0.13-0.3-0.29-0.6-0.42-0.9
			C402.14-97.84,402.42-98.01,402.71-98.17z"/>
		<linearGradient id="SVGID_8_" gradientUnits="userSpaceOnUse" x1="36.77" y1="-26.3289" x2="117.6973" y2="-26.3289">
			<stop  offset="0" style="stop-color:#5FB5CC"/>
			<stop  offset="0.6807" style="stop-color:#478899"/>
		</linearGradient>
		<path class="st10" d="M117.7,55.42H47.29c-5.81,0-10.52-4.71-10.52-10.52v-61.57c0-2.94,0.14-5.86,0.4-8.74
			c5.6-33.72,26.8-62.16,55.95-77.64c6.06-2.67,7.92-3.68,14.57-5.03C95.11-85.02,92.48-59.61,92.48-31.49
			C92.48,0.48,101.73,30.3,117.7,55.42z"/>
		<path class="st3" d="M417.6-34.7c0,33.3-9.95,64.29-27.03,90.12h-1.18l-271.9,0.14c-0.03-0.05-0.06-0.09-0.09-0.14
			C100.29,29.58,90.35-1.4,90.35-34.7c0-26.38,6.25-51.31,17.33-73.38h0.01c26.89-53.52,82.29-90.25,146.28-90.25
			c66.01,0,122.88,39.08,148.75,95.37C412.28-82.18,417.6-59.06,417.6-34.7z"/>
	</g>
	<path class="st11" d="M174.2,122.89c0,11.05-9.62,19.85-20.95,18.49c-8.61-1.04-15.47-8.13-16.24-16.77
		c-0.27-3.05,0.18-5.95,1.23-8.57l0.39-0.92l15.37-36.19c0.58-1.37,2.52-1.37,3.1,0l14.61,34.68l1.78,4.22v0.01
		C173.96,119.45,174.2,121.14,174.2,122.89z"/>
	<path class="st11" d="M447.06,122.89c0,11.05-9.62,19.85-20.95,18.49c-8.61-1.04-15.47-8.13-16.24-16.77
		c-0.27-3.05,0.18-5.95,1.23-8.57l0.39-0.92l15.37-36.19c0.58-1.37,2.52-1.37,3.1,0l14.61,34.68l1.78,4.22v0.01
		C446.82,119.45,447.06,121.14,447.06,122.89z"/>
	<path class="st11" d="M380.18,195.69c0,11.05-9.62,19.85-20.95,18.49c-8.61-1.04-15.47-8.13-16.24-16.77
		c-0.27-3.05,0.18-5.95,1.23-8.57l0.39-0.92l15.37-36.19c0.58-1.37,2.52-1.37,3.1,0l14.61,34.68l1.78,4.22v0.01
		C379.94,192.25,380.18,193.94,380.18,195.69z"/>
	<path class="st11" d="M243.05,195.69c0,11.05-9.62,19.85-20.95,18.49c-8.61-1.04-15.47-8.13-16.24-16.77
		c-0.27-3.05,0.18-5.95,1.23-8.57l0.39-0.92l15.37-36.19c0.58-1.37,2.52-1.37,3.1,0l14.61,34.68l1.78,4.22v0.01
		C242.81,192.25,243.05,193.94,243.05,195.69z"/>
	<path class="st11" d="M310.63,122.89c0,11.05-9.62,19.85-20.95,18.49c-8.61-1.04-15.47-8.13-16.24-16.77
		c-0.27-3.05,0.18-5.95,1.23-8.57l0.39-0.92l15.37-36.19c0.58-1.37,2.52-1.37,3.1,0l14.61,34.68l1.78,4.22v0.01
		C310.39,119.45,310.63,121.14,310.63,122.89z"/>
	<linearGradient id="SVGID_9_" gradientUnits="userSpaceOnUse" x1="887.903" y1="-28.586" x2="1079.23" y2="-28.586">
		<stop  offset="0.3138" style="stop-color:#305B66"/>
		<stop  offset="1" style="stop-color:#478899"/>
	</linearGradient>
	<path class="st12" d="M1076.29-38.23c-7.71-26.88-26.02-49.24-50.08-62.22c-14.37-7.75-30.8-12.14-48.25-12.14
		c-15.45,0-30.1,3.46-43.23,9.64c-0.57,0.26-1.14,0.53-1.69,0.81c0.03,0.07,0.06,0.14,0.09,0.22c-12.81,8.07-23.6,19.19-31.41,32.4
		c-3.25,5.48-5.99,11.3-8.15,17.42c-0.1,0.29-0.21,0.59-0.3,0.88c-0.21,0.62-0.41,1.24-0.61,1.86c-0.19,0.58-0.36,1.16-0.54,1.75
		c-0.01,0,0,0.01,0,0.01c-2.59,8.8-4.04,18.11-4.19,27.67c0,0.41-0.01,0.83-0.01,1.24c0.05,29.72,13.05,56.31,33.48,74.13h147.06
		c5.96,0,10.78-4.87,10.78-10.86v-69.01C1078.56-29.15,1077.57-33.75,1076.29-38.23z M934.71-98.17c0.03,0.05,0.05,0.11,0.07,0.17
		V-98c0.12,0.27,0.24,0.54,0.35,0.8c-0.01,0-0.01,0.01-0.02,0.01c-0.27,0.14-0.56,0.27-0.84,0.41c-0.13-0.3-0.29-0.6-0.42-0.9
		C934.14-97.84,934.42-98.01,934.71-98.17z"/>
	<path class="st2" d="M577.32-27.34c-0.25,2.79-0.39,5.61-0.39,8.46v-6C577.05-25.7,577.19-26.52,577.32-27.34z"/>
	<path class="st2" d="M935.13-97.2c-0.01,0-0.01,0.01-0.02,0.01c-0.27,0.14-0.56,0.27-0.84,0.41c-0.13-0.3-0.29-0.6-0.42-0.9
		c0.29-0.17,0.57-0.33,0.86-0.5c0.03,0.05,0.05,0.11,0.07,0.17V-98C934.91-97.73,935.02-97.46,935.13-97.2z"/>
	<path class="st3" d="M892.64-49.38c-2.93,9.32-4.57,19.22-4.73,29.43C888.02-30.22,889.67-40.11,892.64-49.38z"/>
	<path class="st3" d="M935.13-97.2c-0.01,0-0.01,0.01-0.02,0.01c-0.27,0.14-0.56,0.27-0.84,0.41c-0.13-0.3-0.29-0.6-0.42-0.9
		c0.29-0.17,0.57-0.33,0.86-0.5c0.03,0.05,0.05,0.11,0.07,0.17V-98C934.91-97.73,935.02-97.46,935.13-97.2z"/>
	<path class="st4" d="M935.13-97.2c-0.01,0-0.01,0.01-0.02,0.01c-0.1-0.27-0.22-0.54-0.33-0.81
		C934.91-97.73,935.02-97.46,935.13-97.2z"/>
	<linearGradient id="SVGID_10_" gradientUnits="userSpaceOnUse" x1="568.77" y1="-26.3289" x2="649.6973" y2="-26.3289">
		<stop  offset="0" style="stop-color:#478899"/>
		<stop  offset="0.6807" style="stop-color:#305B66"/>
	</linearGradient>
	<path class="st13" d="M649.7,55.42h-70.41c-5.81,0-10.52-4.71-10.52-10.52v-61.57c0-2.94,0.14-5.86,0.4-8.74
		c5.6-33.72,26.8-62.16,55.95-77.64c6.06-2.67,7.92-3.68,14.57-5.03c-12.58,23.06-15.21,48.47-15.21,76.59
		C624.48,0.48,633.73,30.3,649.7,55.42z"/>
	<path class="st14" d="M949.6-34.7c0,33.3-9.95,64.29-27.03,90.12h-1.18l-271.9,0.14c-0.03-0.05-0.06-0.09-0.09-0.14
		c-17.1-25.84-27.03-56.82-27.03-90.12c0-26.38,6.25-51.31,17.33-73.38h0.01c26.89-53.52,82.29-90.25,146.28-90.25
		c66.01,0,122.88,39.08,148.75,95.37C944.28-82.18,949.6-59.06,949.6-34.7z"/>
	<line class="st11" x1="649.39" y1="55.42" x2="649.39" y2="214.32"/>
	<line class="st11" x1="922.56" y1="55.42" x2="922.56" y2="214.32"/>
	<linearGradient id="SVGID_11_" gradientUnits="userSpaceOnUse" x1="1511.4028" y1="-103.6563" x2="1393.4307" y2="123.3508">
		<stop  offset="0" style="stop-color:#FFED00"/>
		<stop  offset="0.3619" style="stop-color:#EA5B0C"/>
	</linearGradient>
	<path class="st15" d="M1568.32-47.14c0,14.66-3.66,28.47-10.11,40.56c-14.5,27.21-43.17,45.72-76.17,45.72
		c-0.75,0-1.51-0.01-2.26-0.03c-0.59-0.01-1.18-0.03-1.77-0.07c-16.37-0.74-31.56-6.05-44.31-14.7c-0.05-0.03-0.1-0.06-0.14-0.09
		c-22.82-15.53-37.81-41.7-37.81-71.38c0-11.81,2.38-23.07,6.67-33.32c13.03-31.11,43.77-52.97,79.62-52.97
		C1529.69-133.43,1568.32-94.8,1568.32-47.14z"/>
	<path class="st2" d="M1109.32,66.53c-0.25,2.79-0.39,5.61-0.39,8.46v-6C1109.05,68.17,1109.19,67.35,1109.32,66.53z"/>
	<path class="st2" d="M1467.13-3.33c-0.01,0-0.01,0.01-0.02,0.01c-0.27,0.14-0.56,0.27-0.84,0.41c-0.13-0.3-0.29-0.6-0.42-0.9
		c0.29-0.17,0.57-0.33,0.86-0.5c0.03,0.05,0.05,0.11,0.07,0.17v0.01C1466.91-3.86,1467.02-3.59,1467.13-3.33z"/>
	<path class="st3" d="M1424.64,44.49c-2.93,9.32-4.57,19.22-4.73,29.43C1420.02,63.65,1421.67,53.75,1424.64,44.49z"/>
	<path class="st3" d="M1467.13-3.33c-0.01,0-0.01,0.01-0.02,0.01c-0.27,0.14-0.56,0.27-0.84,0.41c-0.13-0.3-0.29-0.6-0.42-0.9
		c0.29-0.17,0.57-0.33,0.86-0.5c0.03,0.05,0.05,0.11,0.07,0.17v0.01C1466.91-3.86,1467.02-3.59,1467.13-3.33z"/>
	<path class="st4" d="M1467.13-3.33c-0.01,0-0.01,0.01-0.02,0.01c-0.1-0.27-0.22-0.54-0.33-0.81
		C1466.91-3.86,1467.02-3.59,1467.13-3.33z"/>
	<g>
		<linearGradient id="SVGID_12_" gradientUnits="userSpaceOnUse" x1="1419.9031" y1="65.2814" x2="1611.23" y2="65.2814">
			<stop  offset="0.3138" style="stop-color:#478899"/>
			<stop  offset="1" style="stop-color:#5FB5CC"/>
		</linearGradient>
		<path class="st16" d="M1608.29,55.63c-7.71-26.88-26.02-49.24-50.08-62.22c-14.37-7.75-30.8-12.14-48.25-12.14
			c-15.45,0-30.1,3.46-43.23,9.64c-0.57,0.26-1.14,0.53-1.69,0.81c0.03,0.07,0.06,0.14,0.09,0.22c-12.81,8.07-23.6,19.19-31.41,32.4
			c-3.25,5.48-5.99,11.3-8.15,17.42c-0.1,0.29-0.21,0.59-0.3,0.88c-0.21,0.62-0.41,1.24-0.61,1.86c-0.19,0.58-0.36,1.16-0.54,1.75
			c-0.01,0,0,0.01,0,0.01c-2.59,8.8-4.04,18.11-4.19,27.67c0,0.41-0.01,0.83-0.01,1.24c0.05,29.72,13.05,56.31,33.48,74.13h147.06
			c5.96,0,10.78-4.87,10.78-10.86V69.42C1610.56,64.71,1609.57,60.12,1608.29,55.63z M1466.71-4.3c0.03,0.05,0.05,0.11,0.07,0.17
			v0.01c0.12,0.27,0.24,0.54,0.35,0.8c-0.01,0-0.01,0.01-0.02,0.01c-0.27,0.14-0.56,0.27-0.84,0.41c-0.13-0.3-0.29-0.6-0.42-0.9
			C1466.14-3.97,1466.42-4.14,1466.71-4.3z"/>
		<linearGradient id="SVGID_13_" gradientUnits="userSpaceOnUse" x1="1100.77" y1="67.5385" x2="1181.6973" y2="67.5385">
			<stop  offset="0" style="stop-color:#5FB5CC"/>
			<stop  offset="0.6807" style="stop-color:#478899"/>
		</linearGradient>
		<path class="st17" d="M1181.7,149.29h-70.41c-5.81,0-10.52-4.71-10.52-10.52V77.2c0-2.94,0.14-5.86,0.4-8.74
			c5.6-33.72,26.8-62.16,55.95-77.64c6.06-2.67,7.92-3.68,14.57-5.03c-12.58,23.06-15.21,48.47-15.21,76.59
			C1156.48,94.35,1165.73,124.16,1181.7,149.29z"/>
		<path class="st3" d="M1481.6,59.17c0,33.3-9.95,64.29-27.03,90.12h-1.18l-271.9,0.14c-0.03-0.05-0.06-0.09-0.09-0.14
			c-17.1-25.84-27.03-56.82-27.03-90.12c0-26.38,6.25-51.31,17.33-73.38h0.01c26.89-53.52,82.29-90.25,146.28-90.25
			c66.01,0,122.88,39.08,148.75,95.37C1476.28,11.69,1481.6,34.81,1481.6,59.17z"/>
	</g>
	<linearGradient id="SVGID_14_" gradientUnits="userSpaceOnUse" x1="1974.7181" y1="-4.1736" x2="2086.4653" y2="-126.3032">
		<stop  offset="0" style="stop-color:#706F6F"/>
		<stop  offset="1" style="stop-color:#F6F6F6"/>
	</linearGradient>
	<path class="st18" d="M2100.32-47.14c0,14.66-3.66,28.47-10.11,40.56c-14.5,27.21-43.17,45.72-76.16,45.72
		c-0.75,0-1.51-0.01-2.26-0.03c-0.59-0.01-1.18-0.03-1.77-0.07c-16.37-0.74-31.56-6.05-44.31-14.7c-0.05-0.03-0.1-0.06-0.14-0.09
		c-22.82-15.53-37.81-41.7-37.81-71.38c0-11.81,2.38-23.07,6.67-33.32c13.03-31.11,43.77-52.97,79.62-52.97
		C2061.69-133.43,2100.32-94.8,2100.32-47.14z"/>
	<g>
		<linearGradient id="SVGID_15_" gradientUnits="userSpaceOnUse" x1="1951.9031" y1="65.2814" x2="2143.23" y2="65.2814">
			<stop  offset="0.3138" style="stop-color:#305B66"/>
			<stop  offset="1" style="stop-color:#478899"/>
		</linearGradient>
		<path class="st19" d="M2140.29,55.63c-7.71-26.88-26.02-49.24-50.08-62.22c-14.37-7.75-30.8-12.14-48.25-12.14
			c-15.45,0-30.1,3.46-43.23,9.64c-0.57,0.26-1.14,0.53-1.69,0.81c0.03,0.07,0.06,0.14,0.09,0.22c-12.81,8.07-23.6,19.19-31.41,32.4
			c-3.25,5.48-5.99,11.3-8.15,17.42c-0.1,0.29-0.21,0.59-0.3,0.88c-0.21,0.62-0.41,1.24-0.61,1.86c-0.19,0.58-0.36,1.16-0.54,1.75
			c-0.01,0,0,0.01,0,0.01c-2.59,8.8-4.04,18.11-4.19,27.67c0,0.41-0.01,0.83-0.01,1.24c0.05,29.72,13.05,56.31,33.48,74.13h147.06
			c5.96,0,10.78-4.87,10.78-10.86V69.42C2142.56,64.71,2141.57,60.12,2140.29,55.63z M1998.71-4.3c0.03,0.05,0.05,0.11,0.07,0.17
			v0.01c0.12,0.27,0.24,0.54,0.35,0.8c-0.01,0-0.01,0.01-0.02,0.01c-0.27,0.14-0.56,0.27-0.84,0.41c-0.13-0.3-0.29-0.6-0.42-0.9
			C1998.14-3.97,1998.42-4.14,1998.71-4.3z"/>
		<path class="st2" d="M1641.32,66.53c-0.25,2.79-0.39,5.61-0.39,8.46v-6C1641.05,68.17,1641.19,67.35,1641.32,66.53z"/>
		<path class="st2" d="M1999.13-3.33c-0.01,0-0.01,0.01-0.02,0.01c-0.27,0.14-0.56,0.27-0.84,0.41c-0.13-0.3-0.29-0.6-0.42-0.9
			c0.29-0.17,0.57-0.33,0.86-0.5c0.03,0.05,0.05,0.11,0.07,0.17v0.01C1998.91-3.86,1999.02-3.59,1999.13-3.33z"/>
		<path class="st3" d="M1956.64,44.49c-2.93,9.32-4.57,19.22-4.73,29.43C1952.02,63.65,1953.67,53.75,1956.64,44.49z"/>
		<path class="st3" d="M1999.13-3.33c-0.01,0-0.01,0.01-0.02,0.01c-0.27,0.14-0.56,0.27-0.84,0.41c-0.13-0.3-0.29-0.6-0.42-0.9
			c0.29-0.17,0.57-0.33,0.86-0.5c0.03,0.05,0.05,0.11,0.07,0.17v0.01C1998.91-3.86,1999.02-3.59,1999.13-3.33z"/>
		<path class="st4" d="M1999.13-3.33c-0.01,0-0.01,0.01-0.02,0.01c-0.1-0.27-0.22-0.54-0.33-0.81
			C1998.91-3.86,1999.02-3.59,1999.13-3.33z"/>
		<linearGradient id="SVGID_16_" gradientUnits="userSpaceOnUse" x1="1632.77" y1="67.5385" x2="1713.6973" y2="67.5385">
			<stop  offset="0" style="stop-color:#478899"/>
			<stop  offset="0.6807" style="stop-color:#305B66"/>
		</linearGradient>
		<path class="st20" d="M1713.7,149.29h-70.41c-5.81,0-10.52-4.71-10.52-10.52V77.2c0-2.94,0.14-5.86,0.4-8.74
			c5.6-33.72,26.8-62.16,55.95-77.64c6.06-2.67,7.92-3.68,14.57-5.03c-12.58,23.06-15.21,48.47-15.21,76.59
			C1688.48,94.35,1697.73,124.16,1713.7,149.29z"/>
		<path class="st14" d="M2013.6,59.17c0,33.3-9.95,64.29-27.03,90.12h-1.18l-271.9,0.14c-0.03-0.05-0.06-0.09-0.09-0.14
			c-17.1-25.84-27.03-56.82-27.03-90.12c0-26.38,6.25-51.31,17.33-73.38h0.01c26.89-53.52,82.29-90.25,146.28-90.25
			c66.01,0,122.88,39.08,148.75,95.37C2008.28,11.69,2013.6,34.81,2013.6,59.17z"/>
	</g>
</g>
<g id="Capa_3">
	<path class="st21" d="M979.06,122.89c0,11.05-9.62,19.85-20.95,18.49c-8.61-1.04-15.47-8.13-16.24-16.77
		c-0.27-3.05,0.18-5.95,1.23-8.57l0.39-0.92l15.37-36.19c0.58-1.37,2.52-1.37,3.1,0l14.61,34.68l1.78,4.22v0.01
		C978.82,119.45,979.06,121.14,979.06,122.89z"/>
	<path class="st21" d="M912.18,195.69c0,11.05-9.62,19.85-20.95,18.49c-8.61-1.04-15.47-8.13-16.24-16.77
		c-0.27-3.05,0.18-5.95,1.23-8.57l0.39-0.92l15.37-36.19c0.58-1.37,2.52-1.37,3.1,0l14.61,34.68l1.78,4.22v0.01
		C911.94,192.25,912.18,193.94,912.18,195.69z"/>
	<path class="st21" d="M775.05,195.69c0,11.05-9.62,19.85-20.95,18.49c-8.61-1.04-15.47-8.13-16.24-16.77
		c-0.27-3.05,0.18-5.95,1.23-8.57l0.39-0.92l15.37-36.19c0.58-1.37,2.52-1.37,3.1,0l14.61,34.68l1.78,4.22v0.01
		C774.81,192.25,775.05,193.94,775.05,195.69z"/>
	<path class="st21" d="M842.63,122.89c0,11.05-9.62,19.85-20.95,18.49c-8.61-1.04-15.47-8.13-16.24-16.77
		c-0.27-3.05,0.18-5.95,1.23-8.57l0.39-0.92l15.37-36.19c0.58-1.37,2.52-1.37,3.1,0l14.61,34.68l1.78,4.22v0.01
		C842.39,119.45,842.63,121.14,842.63,122.89z"/>
	<path class="st21" d="M706.2,122.89c0,11.05-9.62,19.85-20.95,18.49c-8.61-1.04-15.47-8.13-16.24-16.77
		c-0.27-3.05,0.18-5.95,1.23-8.57l0.39-0.92l15.37-36.19c0.58-1.37,2.52-1.37,3.1,0l14.61,34.68l1.78,4.22v0.01
		C705.96,119.45,706.2,121.14,706.2,122.89z"/>
</g>
<g id="Capa_4">
	<polyline class="st22" points="649.39,266.26 677.31,206.33 705.24,146.4 649.39,146.4 	"/>
	<polyline class="st22" points="649.7,55.56 621.62,115.49 593.54,175.42 649.7,175.42 	"/>
	<polyline class="st22" points="922.56,265 950.49,205.07 978.41,145.15 922.56,145.15 	"/>
	<polyline class="st22" points="922.87,55.42 894.79,114.79 866.71,174.16 922.87,174.16 	"/>
</g>
</svg>
