<?xml version="1.0" encoding="utf-8"?>
<!-- Generator: Adobe Illustrator 24.3.0, SVG Export Plug-In . SVG Version: 6.00 Build 0)  -->
<svg version="1.1" xmlns="http://www.w3.org/2000/svg" xmlns:xlink="http://www.w3.org/1999/xlink" x="0px" y="0px"
	 viewBox="0 0 512 512" style="enable-background:new 0 0 512 512;" xml:space="preserve">
<style type="text/css">
	.st0{fill:url(#SVGID_1_);}
	.st1{fill:url(#SVGID_2_);}
	.st2{fill:#49D9FF;}
	.st3{fill:#5FB5CC;}
	.st4{fill:#87C8D9;}
	.st5{fill:url(#SVGID_3_);}
	.st6{fill:url(#SVGID_4_);}
	.st7{fill:url(#SVGID_5_);}
	.st8{fill:url(#SVGID_6_);}
	.st9{fill:url(#SVGID_7_);}
	.st10{fill:url(#SVGID_8_);}
	.st11{fill:#B2B2B2;}
	.st12{fill:url(#SVGID_9_);}
	.st13{fill:url(#SVGID_10_);}
	.st14{fill:#478899;}
	.st15{fill:url(#SVGID_11_);}
	.st16{fill:url(#SVGID_12_);}
	.st17{fill:url(#SVGID_13_);}
	.st18{fill:url(#SVGID_14_);}
	.st19{fill:url(#SVGID_15_);}
	.st20{fill:url(#SVGID_16_);}
	.st21{fill:#595959;}
	.st22{opacity:0.82;fill:#FCEA10;}
</style>
<g id="Capa_2">
	<g>
		<linearGradient id="SVGID_1_" gradientUnits="userSpaceOnUse" x1="-404.5971" y1="144.3437" x2="-522.5693" y2="371.3508">
			<stop  offset="0" style="stop-color:#FFED00"/>
			<stop  offset="0.7478" style="stop-color:#EA5B0C"/>
		</linearGradient>
		<path class="st0" d="M-347.68,200.86c0,14.66-3.66,28.47-10.11,40.56c-14.5,27.21-43.17,45.72-76.17,45.72
			c-0.75,0-1.51-0.01-2.26-0.03c-0.59-0.01-1.18-0.03-1.77-0.07c-16.37-0.74-31.56-6.05-44.31-14.7c-0.05-0.03-0.1-0.06-0.14-0.09
			c-22.82-15.53-37.81-41.7-37.81-71.38c0-11.81,2.38-23.07,6.67-33.32c13.03-31.11,43.77-52.97,79.62-52.97
			C-386.31,114.57-347.68,153.2-347.68,200.86z"/>
		<linearGradient id="SVGID_2_" gradientUnits="userSpaceOnUse" x1="-496.097" y1="313.2814" x2="-304.77" y2="313.2814">
			<stop  offset="0.3319" style="stop-color:#5FB5CC"/>
			<stop  offset="1" style="stop-color:#87C8D9"/>
		</linearGradient>
		<path class="st1" d="M-307.71,303.63c-7.71-26.88-26.02-49.24-50.08-62.22c-14.37-7.75-30.8-12.14-48.25-12.14
			c-15.45,0-30.1,3.46-43.23,9.64c-0.57,0.26-1.14,0.53-1.69,0.81c0.03,0.07,0.06,0.14,0.09,0.22c-12.81,8.07-23.6,19.19-31.41,32.4
			c-3.25,5.48-5.99,11.3-8.15,17.42c-0.1,0.29-0.21,0.59-0.3,0.88c-0.21,0.62-0.41,1.24-0.61,1.86c-0.19,0.58-0.36,1.16-0.54,1.75
			c-0.01,0,0,0.01,0,0.01c-2.59,8.8-4.04,18.11-4.19,27.67c0,0.41-0.01,0.83-0.01,1.24c0.05,29.72,13.05,56.31,33.48,74.13h147.06
			c5.96,0,10.78-4.87,10.78-10.86v-69.01C-305.44,312.71-306.43,308.12-307.71,303.63z M-449.29,243.7
			c0.03,0.05,0.05,0.11,0.07,0.17v0.01c0.12,0.27,0.24,0.54,0.35,0.8c-0.01,0-0.01,0.01-0.02,0.01c-0.27,0.14-0.56,0.27-0.84,0.41
			c-0.13-0.3-0.29-0.6-0.42-0.9C-449.86,244.03-449.58,243.86-449.29,243.7z"/>
		<path class="st2" d="M-806.68,314.53c-0.25,2.79-0.39,5.61-0.39,8.46v-6C-806.95,316.17-806.81,315.35-806.68,314.53z"/>
		<path class="st2" d="M-448.87,244.67c-0.01,0-0.01,0.01-0.02,0.01c-0.27,0.14-0.56,0.27-0.84,0.41c-0.13-0.3-0.29-0.6-0.42-0.9
			c0.29-0.17,0.57-0.33,0.86-0.5c0.03,0.05,0.05,0.11,0.07,0.17v0.01C-449.09,244.14-448.98,244.41-448.87,244.67z"/>
		<path class="st3" d="M-491.36,292.49c-2.93,9.32-4.57,19.22-4.73,29.43C-495.98,311.65-494.33,301.75-491.36,292.49z"/>
		<path class="st3" d="M-448.87,244.67c-0.01,0-0.01,0.01-0.02,0.01c-0.27,0.14-0.56,0.27-0.84,0.41c-0.13-0.3-0.29-0.6-0.42-0.9
			c0.29-0.17,0.57-0.33,0.86-0.5c0.03,0.05,0.05,0.11,0.07,0.17v0.01C-449.09,244.14-448.98,244.41-448.87,244.67z"/>
		<path class="st4" d="M-448.87,244.67c-0.01,0-0.01,0.01-0.02,0.01c-0.1-0.27-0.22-0.54-0.33-0.81
			C-449.09,244.14-448.98,244.41-448.87,244.67z"/>
		<linearGradient id="SVGID_3_" gradientUnits="userSpaceOnUse" x1="-815.23" y1="315.5385" x2="-734.3027" y2="315.5385">
			<stop  offset="0" style="stop-color:#87C8D9"/>
			<stop  offset="0.6655" style="stop-color:#5FB5CC"/>
		</linearGradient>
		<path class="st5" d="M-734.3,397.29h-70.41c-5.81,0-10.52-4.71-10.52-10.52V325.2c0-2.94,0.14-5.86,0.4-8.74
			c5.6-33.72,26.8-62.16,55.95-77.64c6.06-2.67,7.92-3.68,14.57-5.03c-12.58,23.06-15.21,48.47-15.21,76.59
			C-759.52,342.35-750.27,372.16-734.3,397.29z"/>
		<path class="st4" d="M-434.4,307.17c0,33.3-9.95,64.29-27.03,90.12h-1.18l-271.9,0.14c-0.03-0.05-0.06-0.09-0.09-0.14
			c-17.1-25.84-27.03-56.82-27.03-90.12c0-26.38,6.25-51.31,17.33-73.38h0.01c26.89-53.52,82.29-90.25,146.28-90.25
			c66.01,0,122.88,39.08,148.75,95.37C-439.72,259.69-434.4,282.81-434.4,307.17z"/>
	</g>
	<g>
		<linearGradient id="SVGID_4_" gradientUnits="userSpaceOnUse" x1="-23.129" y1="252.5002" x2="-26.8268" y2="259.6156">
			<stop  offset="0" style="stop-color:#FFED00"/>
			<stop  offset="0.7478" style="stop-color:#EA5B0C"/>
		</linearGradient>
		<path class="st6" d="M-21.35,254.27c0,0.46-0.11,0.89-0.32,1.27c-0.45,0.85-1.35,1.43-2.39,1.43c-0.02,0-0.05,0-0.07,0
			c-0.02,0-0.04,0-0.06,0c-0.51-0.02-0.99-0.19-1.39-0.46c0,0,0,0,0,0c-0.72-0.49-1.19-1.31-1.19-2.24c0-0.37,0.07-0.72,0.21-1.04
			c0.41-0.98,1.37-1.66,2.5-1.66C-22.56,251.57-21.35,252.78-21.35,254.27z"/>
		<linearGradient id="SVGID_5_" gradientUnits="userSpaceOnUse" x1="-25.997" y1="257.7954" x2="-20" y2="257.7954">
			<stop  offset="0.3319" style="stop-color:#5FB5CC"/>
			<stop  offset="1" style="stop-color:#87C8D9"/>
		</linearGradient>
		<path class="st7" d="M-20.09,257.49c-0.24-0.84-0.82-1.54-1.57-1.95c-0.45-0.24-0.97-0.38-1.51-0.38c-0.48,0-0.94,0.11-1.36,0.3
			c-0.02,0.01-0.04,0.02-0.05,0.03c0,0,0,0,0,0.01c-0.4,0.25-0.74,0.6-0.98,1.02c-0.1,0.17-0.19,0.35-0.26,0.55
			c0,0.01-0.01,0.02-0.01,0.03c-0.01,0.02-0.01,0.04-0.02,0.06c-0.01,0.02-0.01,0.04-0.02,0.05c0,0,0,0,0,0
			c-0.08,0.28-0.13,0.57-0.13,0.87c0,0.01,0,0.03,0,0.04c0,0.93,0.41,1.77,1.05,2.32h4.61c0.19,0,0.34-0.15,0.34-0.34v-2.16
			C-20.02,257.78-20.05,257.63-20.09,257.49z M-24.53,255.61C-24.53,255.62-24.53,255.62-24.53,255.61L-24.53,255.61
			c0.01,0.01,0.01,0.02,0.01,0.03c0,0,0,0,0,0c-0.01,0-0.02,0.01-0.03,0.01c0-0.01-0.01-0.02-0.01-0.03
			C-24.55,255.62-24.54,255.62-24.53,255.61z"/>
		<path class="st2" d="M-35.73,257.83c-0.01,0.09-0.01,0.18-0.01,0.27v-0.19C-35.74,257.89-35.74,257.86-35.73,257.83z"/>
		<path class="st2" d="M-24.52,255.64C-24.52,255.64-24.52,255.65-24.52,255.64c-0.01,0-0.02,0.01-0.03,0.01
			c0-0.01-0.01-0.02-0.01-0.03c0.01-0.01,0.02-0.01,0.03-0.02c0,0,0,0,0,0.01v0C-24.52,255.63-24.52,255.64-24.52,255.64z"/>
		<path class="st3" d="M-25.85,257.14c-0.09,0.29-0.14,0.6-0.15,0.92C-25.99,257.74-25.94,257.43-25.85,257.14z"/>
		<path class="st3" d="M-24.52,255.64C-24.52,255.64-24.52,255.65-24.52,255.64c-0.01,0-0.02,0.01-0.03,0.01
			c0-0.01-0.01-0.02-0.01-0.03c0.01-0.01,0.02-0.01,0.03-0.02c0,0,0,0,0,0.01v0C-24.52,255.63-24.52,255.64-24.52,255.64z"/>
		<path class="st4" d="M-24.52,255.64C-24.52,255.64-24.52,255.65-24.52,255.64c0-0.01-0.01-0.02-0.01-0.02
			C-24.52,255.63-24.52,255.64-24.52,255.64z"/>
		<linearGradient id="SVGID_6_" gradientUnits="userSpaceOnUse" x1="-36" y1="257.8662" x2="-33.4634" y2="257.8662">
			<stop  offset="0" style="stop-color:#87C8D9"/>
			<stop  offset="0.6655" style="stop-color:#5FB5CC"/>
		</linearGradient>
		<path class="st8" d="M-33.46,260.43h-2.21c-0.18,0-0.33-0.15-0.33-0.33v-1.93c0-0.09,0-0.18,0.01-0.27
			c0.18-1.06,0.84-1.95,1.75-2.43c0.19-0.08,0.25-0.12,0.46-0.16c-0.39,0.72-0.48,1.52-0.48,2.4
			C-34.25,258.71-33.96,259.64-33.46,260.43z"/>
		<path class="st4" d="M-24.06,257.6c0,1.04-0.31,2.01-0.85,2.82h-0.04l-8.52,0c0,0,0,0,0,0c-0.54-0.81-0.85-1.78-0.85-2.82
			c0-0.83,0.2-1.61,0.54-2.3h0c0.84-1.68,2.58-2.83,4.58-2.83c2.07,0,3.85,1.22,4.66,2.99C-24.23,256.12-24.06,256.84-24.06,257.6z"
			/>
	</g>
	<path class="st2" d="M9.32,220.66c-0.25,2.79-0.39,5.61-0.39,8.46v-6C9.05,222.3,9.19,221.48,9.32,220.66z"/>
	<path class="st2" d="M367.13,150.8c-0.01,0-0.01,0.01-0.02,0.01c-0.27,0.14-0.56,0.27-0.84,0.41c-0.13-0.3-0.29-0.6-0.42-0.9
		c0.29-0.17,0.57-0.33,0.86-0.5c0.03,0.05,0.05,0.11,0.07,0.17V150C366.91,150.27,367.02,150.54,367.13,150.8z"/>
	<path class="st3" d="M324.64,198.62c-2.93,9.32-4.57,19.22-4.73,29.43C320.02,217.78,321.67,207.89,324.64,198.62z"/>
	<path class="st3" d="M367.13,150.8c-0.01,0-0.01,0.01-0.02,0.01c-0.27,0.14-0.56,0.27-0.84,0.41c-0.13-0.3-0.29-0.6-0.42-0.9
		c0.29-0.17,0.57-0.33,0.86-0.5c0.03,0.05,0.05,0.11,0.07,0.17V150C366.91,150.27,367.02,150.54,367.13,150.8z"/>
	<path class="st4" d="M367.13,150.8c-0.01,0-0.01,0.01-0.02,0.01c-0.1-0.27-0.22-0.54-0.33-0.81
		C366.91,150.27,367.02,150.54,367.13,150.8z"/>
	<g>
		<linearGradient id="SVGID_7_" gradientUnits="userSpaceOnUse" x1="319.903" y1="219.414" x2="511.23" y2="219.414">
			<stop  offset="0.3138" style="stop-color:#478899"/>
			<stop  offset="1" style="stop-color:#5FB5CC"/>
		</linearGradient>
		<path class="st9" d="M508.29,209.77c-7.71-26.88-26.02-49.24-50.08-62.22c-14.37-7.75-30.8-12.14-48.25-12.14
			c-15.45,0-30.1,3.46-43.23,9.64c-0.57,0.26-1.14,0.53-1.69,0.81c0.03,0.07,0.06,0.14,0.09,0.22c-12.81,8.07-23.6,19.19-31.41,32.4
			c-3.25,5.48-5.99,11.3-8.15,17.42c-0.1,0.29-0.21,0.59-0.3,0.88c-0.21,0.62-0.41,1.24-0.61,1.86c-0.19,0.58-0.36,1.16-0.54,1.75
			c-0.01,0,0,0.01,0,0.01c-2.59,8.8-4.04,18.11-4.19,27.67c0,0.41-0.01,0.83-0.01,1.24c0.05,29.72,13.05,56.31,33.48,74.13h147.06
			c5.96,0,10.78-4.87,10.78-10.86v-69.01C510.56,218.85,509.57,214.25,508.29,209.77z M366.71,149.83c0.03,0.05,0.05,0.11,0.07,0.17
			V150c0.12,0.27,0.24,0.54,0.35,0.8c-0.01,0-0.01,0.01-0.02,0.01c-0.27,0.14-0.56,0.27-0.84,0.41c-0.13-0.3-0.29-0.6-0.42-0.9
			C366.14,150.16,366.42,149.99,366.71,149.83z"/>
		<linearGradient id="SVGID_8_" gradientUnits="userSpaceOnUse" x1="0.77" y1="221.6711" x2="81.6973" y2="221.6711">
			<stop  offset="0" style="stop-color:#5FB5CC"/>
			<stop  offset="0.6807" style="stop-color:#478899"/>
		</linearGradient>
		<path class="st10" d="M81.7,303.42H11.29c-5.81,0-10.52-4.71-10.52-10.52v-61.57c0-2.94,0.14-5.86,0.4-8.74
			c5.6-33.72,26.8-62.16,55.95-77.64c6.06-2.67,7.92-3.68,14.57-5.03c-12.58,23.06-15.21,48.47-15.21,76.59
			C56.48,248.48,65.73,278.3,81.7,303.42z"/>
		<path class="st3" d="M381.6,213.3c0,33.3-9.95,64.29-27.03,90.12h-1.18l-271.9,0.14c-0.03-0.05-0.06-0.09-0.09-0.14
			c-17.1-25.84-27.03-56.82-27.03-90.12c0-26.38,6.25-51.31,17.33-73.38h0.01c26.89-53.52,82.29-90.25,146.28-90.25
			c66.01,0,122.88,39.08,148.75,95.37C376.28,165.82,381.6,188.94,381.6,213.3z"/>
	</g>
	<path class="st11" d="M138.2,370.89c0,11.05-9.62,19.85-20.95,18.49c-8.61-1.04-15.47-8.13-16.24-16.77
		c-0.27-3.05,0.18-5.95,1.23-8.57l0.39-0.92l15.37-36.19c0.58-1.37,2.52-1.37,3.1,0l14.61,34.68l1.78,4.22v0.01
		C137.96,367.45,138.2,369.14,138.2,370.89z"/>
	<path class="st11" d="M411.06,370.89c0,11.05-9.62,19.85-20.95,18.49c-8.61-1.04-15.47-8.13-16.24-16.77
		c-0.27-3.05,0.18-5.95,1.23-8.57l0.39-0.92l15.37-36.19c0.58-1.37,2.52-1.37,3.1,0l14.61,34.68l1.78,4.22v0.01
		C410.82,367.45,411.06,369.14,411.06,370.89z"/>
	<path class="st11" d="M344.18,443.69c0,11.05-9.62,19.85-20.95,18.49c-8.61-1.04-15.47-8.13-16.24-16.77
		c-0.27-3.05,0.18-5.95,1.23-8.57l0.39-0.92l15.37-36.19c0.58-1.37,2.52-1.37,3.1,0l14.61,34.68l1.78,4.22v0.01
		C343.94,440.25,344.18,441.94,344.18,443.69z"/>
	<path class="st11" d="M207.05,443.69c0,11.05-9.62,19.85-20.95,18.49c-8.61-1.04-15.47-8.13-16.24-16.77
		c-0.27-3.05,0.18-5.95,1.23-8.57l0.39-0.92l15.37-36.19c0.58-1.37,2.52-1.37,3.1,0l14.61,34.68l1.78,4.22v0.01
		C206.81,440.25,207.05,441.94,207.05,443.69z"/>
	<path class="st11" d="M274.63,370.89c0,11.05-9.62,19.85-20.95,18.49c-8.61-1.04-15.47-8.13-16.24-16.77
		c-0.27-3.05,0.18-5.95,1.23-8.57l0.39-0.92l15.37-36.19c0.58-1.37,2.52-1.37,3.1,0l14.61,34.68l1.78,4.22v0.01
		C274.39,367.45,274.63,369.14,274.63,370.89z"/>
	<linearGradient id="SVGID_9_" gradientUnits="userSpaceOnUse" x1="851.903" y1="219.414" x2="1043.23" y2="219.414">
		<stop  offset="0.3138" style="stop-color:#305B66"/>
		<stop  offset="1" style="stop-color:#478899"/>
	</linearGradient>
	<path class="st12" d="M1040.29,209.77c-7.71-26.88-26.02-49.24-50.08-62.22c-14.37-7.75-30.8-12.14-48.25-12.14
		c-15.45,0-30.1,3.46-43.23,9.64c-0.57,0.26-1.14,0.53-1.69,0.81c0.03,0.07,0.06,0.14,0.09,0.22c-12.81,8.07-23.6,19.19-31.41,32.4
		c-3.25,5.48-5.99,11.3-8.15,17.42c-0.1,0.29-0.21,0.59-0.3,0.88c-0.21,0.62-0.41,1.24-0.61,1.86c-0.19,0.58-0.36,1.16-0.54,1.75
		c-0.01,0,0,0.01,0,0.01c-2.59,8.8-4.04,18.11-4.19,27.67c0,0.41-0.01,0.83-0.01,1.24c0.05,29.72,13.05,56.31,33.48,74.13h147.06
		c5.96,0,10.78-4.87,10.78-10.86v-69.01C1042.56,218.85,1041.57,214.25,1040.29,209.77z M898.71,149.83
		c0.03,0.05,0.05,0.11,0.07,0.17V150c0.12,0.27,0.24,0.54,0.35,0.8c-0.01,0-0.01,0.01-0.02,0.01c-0.27,0.14-0.56,0.27-0.84,0.41
		c-0.13-0.3-0.29-0.6-0.42-0.9C898.14,150.16,898.42,149.99,898.71,149.83z"/>
	<path class="st2" d="M541.32,220.66c-0.25,2.79-0.39,5.61-0.39,8.46v-6C541.05,222.3,541.19,221.48,541.32,220.66z"/>
	<path class="st2" d="M899.13,150.8c-0.01,0-0.01,0.01-0.02,0.01c-0.27,0.14-0.56,0.27-0.84,0.41c-0.13-0.3-0.29-0.6-0.42-0.9
		c0.29-0.17,0.57-0.33,0.86-0.5c0.03,0.05,0.05,0.11,0.07,0.17V150C898.91,150.27,899.02,150.54,899.13,150.8z"/>
	<path class="st3" d="M856.64,198.62c-2.93,9.32-4.57,19.22-4.73,29.43C852.02,217.78,853.67,207.89,856.64,198.62z"/>
	<path class="st3" d="M899.13,150.8c-0.01,0-0.01,0.01-0.02,0.01c-0.27,0.14-0.56,0.27-0.84,0.41c-0.13-0.3-0.29-0.6-0.42-0.9
		c0.29-0.17,0.57-0.33,0.86-0.5c0.03,0.05,0.05,0.11,0.07,0.17V150C898.91,150.27,899.02,150.54,899.13,150.8z"/>
	<path class="st4" d="M899.13,150.8c-0.01,0-0.01,0.01-0.02,0.01c-0.1-0.27-0.22-0.54-0.33-0.81
		C898.91,150.27,899.02,150.54,899.13,150.8z"/>
	<linearGradient id="SVGID_10_" gradientUnits="userSpaceOnUse" x1="532.77" y1="221.6711" x2="613.6973" y2="221.6711">
		<stop  offset="0" style="stop-color:#478899"/>
		<stop  offset="0.6807" style="stop-color:#305B66"/>
	</linearGradient>
	<path class="st13" d="M613.7,303.42h-70.41c-5.81,0-10.52-4.71-10.52-10.52v-61.57c0-2.94,0.14-5.86,0.4-8.74
		c5.6-33.72,26.8-62.16,55.95-77.64c6.06-2.67,7.92-3.68,14.57-5.03c-12.58,23.06-15.21,48.47-15.21,76.59
		C588.48,248.48,597.73,278.3,613.7,303.42z"/>
	<path class="st14" d="M913.6,213.3c0,33.3-9.95,64.29-27.03,90.12h-1.18l-271.9,0.14c-0.03-0.05-0.06-0.09-0.09-0.14
		c-17.1-25.84-27.03-56.82-27.03-90.12c0-26.38,6.25-51.31,17.33-73.38h0.01c26.89-53.52,82.29-90.25,146.28-90.25
		c66.01,0,122.88,39.08,148.75,95.37C908.28,165.82,913.6,188.94,913.6,213.3z"/>
	<line class="st11" x1="613.39" y1="303.42" x2="613.39" y2="462.32"/>
	<line class="st11" x1="886.56" y1="303.42" x2="886.56" y2="462.32"/>
	<linearGradient id="SVGID_11_" gradientUnits="userSpaceOnUse" x1="1475.4028" y1="144.3437" x2="1357.4307" y2="371.3508">
		<stop  offset="0" style="stop-color:#FFED00"/>
		<stop  offset="0.3619" style="stop-color:#EA5B0C"/>
	</linearGradient>
	<path class="st15" d="M1532.32,200.86c0,14.66-3.66,28.47-10.11,40.56c-14.5,27.21-43.17,45.72-76.17,45.72
		c-0.75,0-1.51-0.01-2.26-0.03c-0.59-0.01-1.18-0.03-1.77-0.07c-16.37-0.74-31.56-6.05-44.31-14.7c-0.05-0.03-0.1-0.06-0.14-0.09
		c-22.82-15.53-37.81-41.7-37.81-71.38c0-11.81,2.38-23.07,6.67-33.32c13.03-31.11,43.77-52.97,79.62-52.97
		C1493.69,114.57,1532.32,153.2,1532.32,200.86z"/>
	<path class="st2" d="M1073.32,314.53c-0.25,2.79-0.39,5.61-0.39,8.46v-6C1073.05,316.17,1073.19,315.35,1073.32,314.53z"/>
	<path class="st2" d="M1431.13,244.67c-0.01,0-0.01,0.01-0.02,0.01c-0.27,0.14-0.56,0.27-0.84,0.41c-0.13-0.3-0.29-0.6-0.42-0.9
		c0.29-0.17,0.57-0.33,0.86-0.5c0.03,0.05,0.05,0.11,0.07,0.17v0.01C1430.91,244.14,1431.02,244.41,1431.13,244.67z"/>
	<path class="st3" d="M1388.64,292.49c-2.93,9.32-4.57,19.22-4.73,29.43C1384.02,311.65,1385.67,301.75,1388.64,292.49z"/>
	<path class="st3" d="M1431.13,244.67c-0.01,0-0.01,0.01-0.02,0.01c-0.27,0.14-0.56,0.27-0.84,0.41c-0.13-0.3-0.29-0.6-0.42-0.9
		c0.29-0.17,0.57-0.33,0.86-0.5c0.03,0.05,0.05,0.11,0.07,0.17v0.01C1430.91,244.14,1431.02,244.41,1431.13,244.67z"/>
	<path class="st4" d="M1431.13,244.67c-0.01,0-0.01,0.01-0.02,0.01c-0.1-0.27-0.22-0.54-0.33-0.81
		C1430.91,244.14,1431.02,244.41,1431.13,244.67z"/>
	<g>
		<linearGradient id="SVGID_12_" gradientUnits="userSpaceOnUse" x1="1383.9031" y1="313.2814" x2="1575.23" y2="313.2814">
			<stop  offset="0.3138" style="stop-color:#478899"/>
			<stop  offset="1" style="stop-color:#5FB5CC"/>
		</linearGradient>
		<path class="st16" d="M1572.29,303.63c-7.71-26.88-26.02-49.24-50.08-62.22c-14.37-7.75-30.8-12.14-48.25-12.14
			c-15.45,0-30.1,3.46-43.23,9.64c-0.57,0.26-1.14,0.53-1.69,0.81c0.03,0.07,0.06,0.14,0.09,0.22c-12.81,8.07-23.6,19.19-31.41,32.4
			c-3.25,5.48-5.99,11.3-8.15,17.42c-0.1,0.29-0.21,0.59-0.3,0.88c-0.21,0.62-0.41,1.24-0.61,1.86c-0.19,0.58-0.36,1.16-0.54,1.75
			c-0.01,0,0,0.01,0,0.01c-2.59,8.8-4.04,18.11-4.19,27.67c0,0.41-0.01,0.83-0.01,1.24c0.05,29.72,13.05,56.31,33.48,74.13h147.06
			c5.96,0,10.78-4.87,10.78-10.86v-69.01C1574.56,312.71,1573.57,308.12,1572.29,303.63z M1430.71,243.7
			c0.03,0.05,0.05,0.11,0.07,0.17v0.01c0.12,0.27,0.24,0.54,0.35,0.8c-0.01,0-0.01,0.01-0.02,0.01c-0.27,0.14-0.56,0.27-0.84,0.41
			c-0.13-0.3-0.29-0.6-0.42-0.9C1430.14,244.03,1430.42,243.86,1430.71,243.7z"/>
		<linearGradient id="SVGID_13_" gradientUnits="userSpaceOnUse" x1="1064.77" y1="315.5385" x2="1145.6973" y2="315.5385">
			<stop  offset="0" style="stop-color:#5FB5CC"/>
			<stop  offset="0.6807" style="stop-color:#478899"/>
		</linearGradient>
		<path class="st17" d="M1145.7,397.29h-70.41c-5.81,0-10.52-4.71-10.52-10.52V325.2c0-2.94,0.14-5.86,0.4-8.74
			c5.6-33.72,26.8-62.16,55.95-77.64c6.06-2.67,7.92-3.68,14.57-5.03c-12.58,23.06-15.21,48.47-15.21,76.59
			C1120.48,342.35,1129.73,372.16,1145.7,397.29z"/>
		<path class="st3" d="M1445.6,307.17c0,33.3-9.95,64.29-27.03,90.12h-1.18l-271.9,0.14c-0.03-0.05-0.06-0.09-0.09-0.14
			c-17.1-25.84-27.03-56.82-27.03-90.12c0-26.38,6.25-51.31,17.33-73.38h0.01c26.89-53.52,82.29-90.25,146.28-90.25
			c66.01,0,122.88,39.08,148.75,95.37C1440.28,259.69,1445.6,282.81,1445.6,307.17z"/>
	</g>
	<linearGradient id="SVGID_14_" gradientUnits="userSpaceOnUse" x1="1938.7181" y1="243.8264" x2="2050.4653" y2="121.6968">
		<stop  offset="0" style="stop-color:#706F6F"/>
		<stop  offset="1" style="stop-color:#F6F6F6"/>
	</linearGradient>
	<path class="st18" d="M2064.32,200.86c0,14.66-3.66,28.47-10.11,40.56c-14.5,27.21-43.17,45.72-76.16,45.72
		c-0.75,0-1.51-0.01-2.26-0.03c-0.59-0.01-1.18-0.03-1.77-0.07c-16.37-0.74-31.56-6.05-44.31-14.7c-0.05-0.03-0.1-0.06-0.14-0.09
		c-22.82-15.53-37.81-41.7-37.81-71.38c0-11.81,2.38-23.07,6.67-33.32c13.03-31.11,43.77-52.97,79.62-52.97
		C2025.69,114.57,2064.32,153.2,2064.32,200.86z"/>
	<g>
		<linearGradient id="SVGID_15_" gradientUnits="userSpaceOnUse" x1="1915.9031" y1="313.2814" x2="2107.23" y2="313.2814">
			<stop  offset="0.3138" style="stop-color:#305B66"/>
			<stop  offset="1" style="stop-color:#478899"/>
		</linearGradient>
		<path class="st19" d="M2104.29,303.63c-7.71-26.88-26.02-49.24-50.08-62.22c-14.37-7.75-30.8-12.14-48.25-12.14
			c-15.45,0-30.1,3.46-43.23,9.64c-0.57,0.26-1.14,0.53-1.69,0.81c0.03,0.07,0.06,0.14,0.09,0.22c-12.81,8.07-23.6,19.19-31.41,32.4
			c-3.25,5.48-5.99,11.3-8.15,17.42c-0.1,0.29-0.21,0.59-0.3,0.88c-0.21,0.62-0.41,1.24-0.61,1.86c-0.19,0.58-0.36,1.16-0.54,1.75
			c-0.01,0,0,0.01,0,0.01c-2.59,8.8-4.04,18.11-4.19,27.67c0,0.41-0.01,0.83-0.01,1.24c0.05,29.72,13.05,56.31,33.48,74.13h147.06
			c5.96,0,10.78-4.87,10.78-10.86v-69.01C2106.56,312.71,2105.57,308.12,2104.29,303.63z M1962.71,243.7
			c0.03,0.05,0.05,0.11,0.07,0.17v0.01c0.12,0.27,0.24,0.54,0.35,0.8c-0.01,0-0.01,0.01-0.02,0.01c-0.27,0.14-0.56,0.27-0.84,0.41
			c-0.13-0.3-0.29-0.6-0.42-0.9C1962.14,244.03,1962.42,243.86,1962.71,243.7z"/>
		<path class="st2" d="M1605.32,314.53c-0.25,2.79-0.39,5.61-0.39,8.46v-6C1605.05,316.17,1605.19,315.35,1605.32,314.53z"/>
		<path class="st2" d="M1963.13,244.67c-0.01,0-0.01,0.01-0.02,0.01c-0.27,0.14-0.56,0.27-0.84,0.41c-0.13-0.3-0.29-0.6-0.42-0.9
			c0.29-0.17,0.57-0.33,0.86-0.5c0.03,0.05,0.05,0.11,0.07,0.17v0.01C1962.91,244.14,1963.02,244.41,1963.13,244.67z"/>
		<path class="st3" d="M1920.64,292.49c-2.93,9.32-4.57,19.22-4.73,29.43C1916.02,311.65,1917.67,301.75,1920.64,292.49z"/>
		<path class="st3" d="M1963.13,244.67c-0.01,0-0.01,0.01-0.02,0.01c-0.27,0.14-0.56,0.27-0.84,0.41c-0.13-0.3-0.29-0.6-0.42-0.9
			c0.29-0.17,0.57-0.33,0.86-0.5c0.03,0.05,0.05,0.11,0.07,0.17v0.01C1962.91,244.14,1963.02,244.41,1963.13,244.67z"/>
		<path class="st4" d="M1963.13,244.67c-0.01,0-0.01,0.01-0.02,0.01c-0.1-0.27-0.22-0.54-0.33-0.81
			C1962.91,244.14,1963.02,244.41,1963.13,244.67z"/>
		<linearGradient id="SVGID_16_" gradientUnits="userSpaceOnUse" x1="1596.77" y1="315.5385" x2="1677.6973" y2="315.5385">
			<stop  offset="0" style="stop-color:#478899"/>
			<stop  offset="0.6807" style="stop-color:#305B66"/>
		</linearGradient>
		<path class="st20" d="M1677.7,397.29h-70.41c-5.81,0-10.52-4.71-10.52-10.52V325.2c0-2.94,0.14-5.86,0.4-8.74
			c5.6-33.72,26.8-62.16,55.95-77.64c6.06-2.67,7.92-3.68,14.57-5.03c-12.58,23.06-15.21,48.47-15.21,76.59
			C1652.48,342.35,1661.73,372.16,1677.7,397.29z"/>
		<path class="st14" d="M1977.6,307.17c0,33.3-9.95,64.29-27.03,90.12h-1.18l-271.9,0.14c-0.03-0.05-0.06-0.09-0.09-0.14
			c-17.1-25.84-27.03-56.82-27.03-90.12c0-26.38,6.25-51.31,17.33-73.38h0.01c26.89-53.52,82.29-90.25,146.28-90.25
			c66.01,0,122.88,39.08,148.75,95.37C1972.28,259.69,1977.6,282.81,1977.6,307.17z"/>
	</g>
</g>
<g id="Capa_3">
	<path class="st21" d="M943.06,370.89c0,11.05-9.62,19.85-20.95,18.49c-8.61-1.04-15.47-8.13-16.24-16.77
		c-0.27-3.05,0.18-5.95,1.23-8.57l0.39-0.92l15.37-36.19c0.58-1.37,2.52-1.37,3.1,0l14.61,34.68l1.78,4.22v0.01
		C942.82,367.45,943.06,369.14,943.06,370.89z"/>
	<path class="st21" d="M876.18,443.69c0,11.05-9.62,19.85-20.95,18.49c-8.61-1.04-15.47-8.13-16.24-16.77
		c-0.27-3.05,0.18-5.95,1.23-8.57l0.39-0.92l15.37-36.19c0.58-1.37,2.52-1.37,3.1,0l14.61,34.68l1.78,4.22v0.01
		C875.94,440.25,876.18,441.94,876.18,443.69z"/>
	<path class="st21" d="M739.05,443.69c0,11.05-9.62,19.85-20.95,18.49c-8.61-1.04-15.47-8.13-16.24-16.77
		c-0.27-3.05,0.18-5.95,1.23-8.57l0.39-0.92l15.37-36.19c0.58-1.37,2.52-1.37,3.1,0l14.61,34.68l1.78,4.22v0.01
		C738.81,440.25,739.05,441.94,739.05,443.69z"/>
	<path class="st21" d="M806.63,370.89c0,11.05-9.62,19.85-20.95,18.49c-8.61-1.04-15.47-8.13-16.24-16.77
		c-0.27-3.05,0.18-5.95,1.23-8.57l0.39-0.92l15.37-36.19c0.58-1.37,2.52-1.37,3.1,0l14.61,34.68l1.78,4.22v0.01
		C806.39,367.45,806.63,369.14,806.63,370.89z"/>
	<path class="st21" d="M670.2,370.89c0,11.05-9.62,19.85-20.95,18.49c-8.61-1.04-15.47-8.13-16.24-16.77
		c-0.27-3.05,0.18-5.95,1.23-8.57l0.39-0.92l15.37-36.19c0.58-1.37,2.52-1.37,3.1,0l14.61,34.68l1.78,4.22v0.01
		C669.96,367.45,670.2,369.14,670.2,370.89z"/>
</g>
<g id="Capa_4">
	<polyline class="st22" points="613.39,514.26 641.31,454.33 669.24,394.4 613.39,394.4 	"/>
	<polyline class="st22" points="613.7,303.56 585.62,363.49 557.54,423.42 613.7,423.42 	"/>
	<polyline class="st22" points="886.56,513 914.49,453.07 942.41,393.15 886.56,393.15 	"/>
	<polyline class="st22" points="886.87,303.42 858.79,362.79 830.71,422.16 886.87,422.16 	"/>
</g>
</svg>
